<svg preserveAspectRatio="none" viewBox="0 0 3436 662.13" xmlns="http://www.w3.org/2000/svg"><path d="m0 628.33a31.38 31.38 0 0 1 14.17 7.34s7.16 3.33 13.83 0c0 0 4.33-3.17 16.5 6 0 0 8.33 6.83 16.83 0 0 0 8.17-5.84 11.5-4.34 0 0 8.17 1.34 14-2.33 0 0 6.67-6.5 17.17-2.17a38.42 38.42 0 0 0 17.5-1.66s16.17-3.67 24.17.16c0 0 16.5 12.5 22.83 14.5 0 0 8.67 6.84 19.33 0 0 0 3.84-1.66 5.34-1.66 0 0 13.5-13.5 22.5-13l15.83-5.84s7.33-1.5 14.33 5.34c0 0 4.67 3.66 5.34 3.66l29.83-.16s9.17-6.45 10.17-9c0 0 6.66-7.52 7.83-8.36 0 0 8.83-3.5 13.33 0 0 0 .34 3.5 12.67 2.34a26.76 26.76 0 0 1 18.17 12s6.33 9.66 17.33 11.83c0 0 12 1.5 18.5 7.67 0 0 58.83 2.33 72.83-1.34 0 0 19.17 1.17 23.34-3.83 0 0 14.5-20.67 22.33-22.5 0 0 9.5-.33 16.33-11 0 0 7.67-10.83 15-10.67 0 0 8.84 1.5 16.5-2.83 0 0 8.34-3.33 14.67 9.33 0 0 17.5 20.17 23.67 20.5 0 0 7 2 13.83-8.83 0 0 8.67-10.33 18.17.33 0 0 6.5 5.84 10.5 5.67 0 0 9.5.17 10.83 3.17 0 0 9 3.17 15-3.92a25.73 25.73 0 0 1 11.17-5.73s7.33-11 9.33-12.5c0 0 7.5-5 14.67 5.17 0 0 4.66 7 16.16 10.16 0 0 10.84 5.67 13.34 10.67 0 0 7.16 4.33 16.66-6.5 0 0 14.34-17.17 18-19.83 0 0 4.84-8.34 17.34 2.83l17.5 19.5s15.16 9 24.33-5c0 0 9.67-16.67 18.5-16.33 0 0 9-6.67 14-14.5 0 0 7.5-5 13.17-1.5 0 0 7.5 3.5 17.83-4.34 0 0 9.83-1.16 11.67 1.34a4.61 4.61 0 0 0 3.16 1.66s11.34-4.16 19.34 6l16.16 11.84s10.67 13.16 13.17 19c0 0 1.33 6.5 14 6.16 0 0 10.33 1 13.5 8.5a51.86 51.86 0 0 0 29.5 0s6.67-14.33 9.17-17c0 0 17.83-17.66 18.16-19.5 0 0 8.34-9.33 18.67 1.34 0 0 12.67 23 17.33 25 0 0 11.84 5.33 15.5-5.84 0 0 2.34-13.66 14.34-17.66 0 0 7.5-4 9.66-10.67 0 0 11.17-5.83 15.67 3.83l7 6.34s10 5 13.17-5c0 0 10.33-27.84 29.16-31.34 0 0 9.67-5.5 22.84 6.5 0 0 9.83 3.34 15 1.67 0 0 9.83 4.17 11.66 7.33 0 0 9.84-1.5 17.67 16.5 0 0 5.67 11.17 14.33 0 0 0 7-11.66 16.67-12.5 0 0 5.17-3.83 5.67-6.16 0 0 6.33-12.34 13.83-4.67 0 0 10.17 5.5 11 7.17 0 0 9 1.33 12.33-.34 0 0 8.67-2 20 8a14.13 14.13 0 0 0 17-4s5-5.33 17.5-2c0 0 12-7 14-7.16 0 0 5.67.33 8 2.66 0 0 11.5 1.84 19.5-1.83 0 0 17.84-11 29.17 5.33 0 0 19.17 12 21.83 11.84a17.69 17.69 0 0 0 10.17-1.84s5.17-2.16 7-1.33c0 0 9.33-3.33 14.67-11.17 0 0 15.83-10.16 40.66-7.66 0 0 8.17-.34 15.84-8.34 0 0 23.83-9.16 32.83-5.33 0 0 11.67 5.5 14.5 5.5 0 0 17.83 3 31.17-.83 0 0 9-3.84 12.66-9.84a20.42 20.42 0 0 1 21.17 0s17.17-2.66 29.33 10.67c0 0 8.5 7.83 18.17 7.17 0 0 13.5 1.16 16.67 5.66 0 0 90.08 5.67 120.83-8.58 0 0 14-21.75 28-22.25 0 0 15.25-22.75 30-19.75a14 14 0 0 0 10.25-3.25s8.75-2.75 18.75 16.5c0 0 11.75 14.5 23.25 13 0 0 7-8 10.25-10.5 0 0 8.5-8 18.25 4.75 0 0 20.25 11.5 30.75 4.5 0 0 7.25-6 11-6.5l9.75-13s9.5-5 14.25 4.5c0 0 12.25 10.5 16.75 11 0 0 3 0 3.75 2.25 0 0 4.25-.25 6.75 6.25 0 0 9.5 6.25 13.5-1 0 0 6.75-5.75 9.25-6.75a33.42 33.42 0 0 0 6.25-9.25s8.25-12.25 13.25-10.75c0 0 10.75-.75 22.25 20.25 0 0 16.25 16.5 27 1.5 0 0 15-19 21.75-17.5 0 0 8.75-5 11.75-13.25 0 0 9-6.5 12.75-1.75 0 0 12.5 1.5 19.25-5 0 0 8.5-.75 11.5 2l10.25-.25s3.5-1.5 14.25 9.75c0 0 16.25 11.25 25.25 28 0 0 1.75 7.25 20.25 7.25 0 0 7.25 7 7.75 7.75s20.5 2.5 28-.5c0 0 6.75-12.25 6.75-15 0 0 13.25-13 15-15.75 0 0 14.25-23.5 26.25 4 0 0 19 35.5 29 7 0 0 4.83-14 14.5-14 0 0 7.83-6.17 8-9.67 0 0 10.5-7.83 19 5.67 0 0 6 10.67 15.67.67 0 0 12.33-33 30.16-33.67 0 0 7.17-4.5 22.17 7.33a34.12 34.12 0 0 0 13.83 1.5s8.84 4.5 10 6c0 0 12.84 1.84 18.34 18.17 0 0 6 10.17 14.16-.5 0 0 7.67-13.33 15.34-12 0 0 5.33-3 9.66-10.83 0 0 8.34-11.34 21.5-.67 0 0 17.84-2.33 27.17 8.83 0 0 5 7 13-.5 0 0 6.67-20.83 16-22.83 0 0 8.83-1.83 10.67-5.33 0 0 10.83-16.5 17.5 0 0 0 11.16 19.33 12.5 33.5 0 0 5.83 9.66 9 10.5s5.5 1.83 5.83 3.83c0 0 8.5 4.67 13.17-7.83 0 0 9.83-33.84 22.33-42.34 0 0 5.33-10.16 5.83-12.16 0 0 8.17-8.84 18 2 0 0 5 9.16 13.34 1.83a15.29 15.29 0 0 1 14.16-5.67s9.67-.16 11.84-10.16c0 0 2.5-16 7-20.5 0 0 10.5-6 13.5 6.83 0 0 0 6.67 18.83 12.67 0 0 8 3.83 11.67 10.5a14.19 14.19 0 0 0 15.33-3.84s24.33-20.16 25-23c0 0 17.67-42.5 18.33-46.33 0 0 9.17-6.67 14.5 1.67 0 0 18.84 9 18.84 10.33 0 0 2.66 11.83 4.83 13 0 0 7 2.5 10.67-2.33 0 0-.17-12.17 11.66-9.84 0 0 10.17 3.84 13-7.16 0 0 6.67-25.5 10.34-27 0 0 7.33-6.84 13.83-6.84 0 0 4.33.17 5.67-6.33 0 0 11.33-13.5 19 0a56 56 0 0 1 7.33 18.33s8.83 13.17 12.67.5c0 0 8.66-21.83 17.66-4.33 0 0 8.5 20.83 20.17 16.5a13.86 13.86 0 0 1 12.33 7.33s8.84 4.34 18-5.33c0 0 22-20.5 24-21.67 0 0 7.5-3.16 13.67-.33 0 0 14.17 4 17.33-9l39.5-103.17s5.84-15.83 15.67-22c0 0 6.33-11.83 19.67-3.33 0 0 11 5 11.83-4.33 0 0 9.17-34.84 14.67-41.84 0 0 4.5-13.33 12-19.83 0 0 9-28.83 9.16-34.17 0 0 10.5-14.83 16.84-7.33 0 0 5 4.67 6 6.67 0 0 10.33 3 12-5.17 0 0 6.83-23.33 9.5-26.33a63.74 63.74 0 0 1 7.5-5.67s14.5-28.83 16.5-44.33c0 0 3-20 13.66-17.5 0 0 5.5-3.84 5.67-7.34 0 0 2.33-29.16 4.17-30.16l4.83 2.33-4 52s-15.33 1.17-18.17 15.5c0 0-11.16 34.17-14.33 36.33 0 0-9.67 4.17-13 19.34l-12.67 33.16s-8.16 9.5-12.5-.33c0 0-2.5-13.5-13.5-9.83l-6.83 22.16a19.62 19.62 0 0 1 -7.5 11.34s-9.33 17.66-12.17 26.66l-10 32s-5.16 10.84-12.83 11.34c0 0-2.17.83-9.67-4.34 0 0-9.5-2-11.83 2.17 0 0-7.67 6.5-10.67 13.83l-26.83 72.67-19.17 43.33s-6.16 7.84-19.16 7.84c0 0-14.17-5.34-21 7.16 0 0-19 18.17-31.5 22.5 0 0-1.17 1-11.5-7 0 0-16.67.34-22-8.16l-6.34-8.17s-6.83-5.5-12.16 5.33c0 0-6.5 16.67-17.34.84 0 0-8.16-14.84-9.66-21.84 0 0-9-7.83-13.5 3a29 29 0 0 1 -10.17 5 21 21 0 0 0 -8.83 12.84l-10.34 32.33s-3.66 9.67-13.66 3c0 0-8.34-5.5-13 3.17 0 0-7.17 12-18.34-6 0 0-3.16-14.17-12.66-17.67 0 0-10-3.67-14.84 4.5l-12 30.33a116.1 116.1 0 0 1 -18 18.34l-21.5 17.83s-6.66 6.83-15.5-4c0 0-3-6.5-12-10.17 0 0-13-5.5-15.33-8.33 0 0-10-1.33-11.17 7 0 0-4.5 13-18.16 14.67a18 18 0 0 0 -13.84 9.83s-7.16 8.33-14.5-2.83c0 0-8-12.5-17.5-.67a137.66 137.66 0 0 0 -21.33 44.5l-6.5 16s-9.17 13.67-15.5-.33a53.74 53.74 0 0 0 -11.5-10s-7.83-4.67-10.17-16.84c0 0-3.66-19-10.16-21.83 0 0-8.34-1-9.34.67a28.31 28.31 0 0 1 -9.66 4.33s-5.5 2.5-9 11.83l-9.5 15s-7.17 6.84-13-1.16c0 0-6.67-9.84-15.67-9.84 0 0-10.17.84-12.67-1 0 0-4-4-7.5-4.66 0 0-9.66-1.67-13 8 0 0-5.33 5-10.66 7 0 0-12 8.5-14.84 14.5 0 0-6.33 10-17.5-.34 0 0-6.83-17-16-21 0 0-6-5.16-16.66-3.33 0 0-8.84-2.17-15-8.33 0 0-13.84-4.84-24.5 4.16 0 0-12 21-12.84 23.34l-6.66 8.83s-9.5 7.17-16.5-3.5c0 0-7.84-14-18.67-2.67 0 0-9.5 8.17-12 9l-5.17 15.34s-7.83 10.83-16.66 6c0 0-13-2.84-19.5-17.5 0 0-4.67-11.34-6.67-11.67 0 0-7-4.5-15.5 8.33 0 0-11.17 8.67-11.33 14.67 0 0-4.84 13.33-14.67 15.83 0 0-21 3.34-30.83-4 0 0-4.67-5.66-12.17-4.66 0 0-8.17 1.66-18.33-15.34 0 0-8.34-13.16-14.84-16.33 0 0-10.66-7.33-11.83-11.83 0 0-26.33-6.67-37 1.83 0 0-12.83 1.17-15 .17 0 0-9.17 7.33-10.33 10.83 0 0-7.17 3.67-10.17 3.67 0 0-15.83 15.33-16 19 0 0-4.17 6.5-17.17 5.5 0 0-10.83-1.5-23.83-18.84 0 0-8.17-13.83-17.5-3.16 0 0-4.83 10-18 17.5l-5.5 6.83s-5.83 9.33-15.33-.5c0 0-3.34-12-15.34-14 0 0-9.83-4.5-13-8.83 0 0-8.16-3.5-12.66 5.83 0 0-7.5 5.67-10.84 5.67 0 0-11 13.16-24 5.33 0 0-11.33.33-13.83-3.67 0 0-6.33-2.66-6.33-6.16 0 0-10.34-3.34-14.67 8.83 0 0-7 9-22.67-2.5 0 0-13.5-10.83-19.16-19.5 0 0-2.34-8.17-20.17-1.5 0 0-6.17 1.5-8 .5 0 0-13.17 13.5-15.5 15 0 0-5.17 5-10.83 5 0 0-11.67 7.17-15.67 15.5 0 0-.33 7.33-13.83 7.33 0 0-103.67 3.34-110.67 2 0 0-10-1.16-17.67-5.83 0 0-11 1.67-24.66-9 0 0-7.34-9-24-9 0 0-13.84-5.17-20.67 2.67 0 0-5.17 9.5-25.17 9.83 0 0-17.43 2.18-33.83-6.5 0 0-6.33-2.5-19.33 2.83 0 0-14.5-.33-19.17 7 0 0-5.33 5.5-15.67 4.17 0 0-10.66 0-15 4.5a54.53 54.53 0 0 1 -15.5 4.5s-10.16 5.67-12 10.33a17.33 17.33 0 0 1 -11.83 3.34s-12.33 6.16-22.17-2c0 0-3.66-2.34-6.5-2.5 0 0-15.5-9.67-16-10.67 0 0-12.16-2.67-29.66 2.83 0 0-6 1.34-10-1.16a32.37 32.37 0 0 0 -19 4.66s-11.34 2.5-16.67 1.17c0 0-10 7.5-11.67 7.33 0 0-8.83-.83-18.5-8.83a22.68 22.68 0 0 0 -14.33.67s-7.83.66-16.5-7.17c0 0-8.5-4.17-15 6 0 0-11.67 7-16 8.83 0 0-3 7.67-12.83 13.17 0 0-10.34 3-16.17-10.5 0 0-4.83-11.83-15.33-14.83 0 0-1.84-4-16.5-3.17 0 0-14.34-7.17-14.34-8.5 0 0-17.83-8.67-30.83 15.17 0 0-8.33 18-15.5 23.5 0 0-9.33 3.83-17.83-8.34 0 0-5.67-9.83-17.5 1.84 0 0-10.67 5-12.5 11.33 0 0-4 12.33-5.34 13.33 0 0-4.83 4.17-8.83 5.5 0 0-10-1.83-17.17-7 0 0-7-5.33-12-19.83 0 0-8.33-11.17-19.16 3.33 0 0-10.34 10.17-11.84 14.5 0 0-4.5 13.84-14.66 16.84 0 0-25.5 3.33-32.34-2a13.36 13.36 0 0 0 -12.83-6.67s-10 2.17-20.17-16.5c0 0-8.33-13.33-17.66-16.83 0 0-8.5-7.34-8.84-9.67 0 0-12.83-1.5-16.33-1.83a17.61 17.61 0 0 0 -14 .5s-6.5 3.66-19.33 2.33c0 0-5 1.33-10.34 9.67 0 0-11 5.66-14 6.5 0 0-12.33 12.5-17.5 20.33 0 0-15.83 11.17-31.83-4.5l-13.17-15.83s-4.5-6.5-13.66.5c0 0-6.67 13.33-16.17 17.83 0 0-10 7.67-11.5 11 0 0-8.17 4.17-14.83-9.83 0 0-4.67-6.84-17.67-10 0 0-11.5-15.67-21.17-2.17 0 0-4.16 4.83-9.5 5.33 0 0-8.33 4.34-9.5 7.84 0 0-8.5 5.33-19.16-1.67 0 0-7.17 3.17-16.67-6.83 0 0-10-7-15.67 2.66 0 0-.33 6.34-11.66 8.34 0 0-8.34-5-11-6 0 0-15-9.5-21.67-20.84 0 0-5.17-6.83-14.83-2.33 0 0-9.67 3-15.67 1.83 0 0-9.17 8.17-10.67 12.17 0 0-7.83 7.83-16.16 8 0 0-11 9.83-14.5 16.83 0 0-6.5 6.84-12.67 7.17 0 0-23.17 2.17-26.83 2s-60 3-66.5 0c0 0-8.34-3.17-9.34-6 0 0-15.66-2.17-17.83-4 0 0-14.17-13.5-14.33-15 0 0-6.84-6-19.34-6.67 0 0-11.66-6.16-21 6.34 0 0-8 10.33-21 11 0 0-21 3.66-32.83-6.17 0 0-4.17-8.83-19.5.67 0 0-6.17 2.66-11.83 2 0 0-9 9.33-12.84 12 0 0-19 8.83-28.83 2.33 0 0-6.5-4.67-11.5-5 0 0-13.33-8.17-13.83-11 0 0-9.84-2-23.5 1.83a40 40 0 0 1 -18.67.84c-10.33-2-15.5 5-15.5 5s-17-1.17-23.83 4c0 0-7 8.83-18.34-.34 0 0-9-8.66-19-4.16a23.69 23.69 0 0 1 -19.33-7.17s.17-3.5-5-2.17z" fill="#4c7ef7" transform="translate(0 -1.17)"/></svg>