<svg xmlns="http://www.w3.org/2000/svg"><defs><font horiz-adv-x="519"><font-face ascent="800" bbox="-356 -316 1205 1114" cap-height="714" descent="-200" panose-1="2 11 4 3 2 2 2 2 2 4" underline-position="-100" underline-thickness="50" unicode-range="U+0008-FE48" x-height="514"/><missing-glyph d="M0 718h512v-718h-512v718zM462 50v617h-412v-617h412zM223 251q0 56 13 81 7 13 18 27.5t28 31.5q16 15 26 26.5t15 21 7 18 2 17.5q0 36-22.5 60.5t-53.5 24.5-53.5-22-28.5-73l-50 8q7 72 44 104.5t91 32.5 89-35.5 35-95.5q0-32-12.5-58.5t-50.5-61.5q-37-33-43-52-6-20-6-72h-46zM222 184h56v-67h-56v67z" horiz-adv-x="512"/><glyph d="M63 714h44v-714h-44v714zM382 21q61 0 93.5 20t46.5 51 15.5 69.5 1.5 75.5v477h44v-492q0-21-.5-47t-6-52.5-17-51.5-33.5-44.5-55.5-31.5-83.5-12q-72 0-113 23t-60.5 59-24 79-4.5 83h44q-3-40 1-77t20-65.5 47.5-46 84.5-17.5z" glyph-name="IJ" horiz-adv-x="646" unicode="&#x49;&#x4a;"/><glyph d="M65 611v103h38v-103h-38zM65 0v514h38v-514h-38zM229 611v103h38v-103h-38zM267 514v-569q0-26-4-49.5t-15.5-41-32-28-53.5-10.5h-16-8t-8 1v33q5-1 11-1.5t14-.5q20 0 34 4.5t23 16 13 31 4 48.5v566h38z" glyph-name="ij" horiz-adv-x="332" unicode="&#x69;&#x6a;"/><glyph d="M0 514h92v106q0 27 9 46.5t24.5 31.5 36 18 43.5 6q17 0 45-5v-33q-28 5-45 5-32 0-53.5-14.5t-21.5-57.5v-103h107v-33h-107v-481h-38v481h-92v33zM286 714h38v-103h-38v103zM286 514h38v-514h-38v514z" glyph-name="fi" horiz-adv-x="389" unicode="&#x66;&#x69;"/><glyph d="M0 514h92v106q0 27 9 46.5t24.5 31.5 36 18 43.5 6q17 0 45-5v-33q-28 5-45 5-32 0-53.5-14.5t-21.5-57.5v-103h107v-33h-107v-481h-38v481h-92v33zM286 714h38v-714h-38v714z" glyph-name="fl" horiz-adv-x="389" unicode="&#x66;&#x6c;"/><glyph d="M130 481v-481h-38v481h-92v33h92v106q0 27 9 46.5t24.5 31.5 36 18 43.5 6q17 0 45-5v-33q-28 5-45 5-32 0-53.5-14.5t-21.5-57.5v-103h169v106q0 27 9 46.5t24.5 31.5 36 18 43.5 6q17 0 45-5v-33q-28 5-45 5-32 0-53.5-14.5t-21.5-57.5v-103h107v-33h-107v-481h-38v481h-169z" glyph-name="f_f" horiz-adv-x="448" unicode="&#x66;&#x66;"/><glyph d="M130 481v-481h-38v481h-92v33h92v106q0 27 9 46.5t24.5 31.5 36 18 43.5 6q17 0 45-5v-33q-28 5-45 5-32 0-53.5-14.5t-21.5-57.5v-103h169v106q0 27 9 46.5t24.5 31.5 36 18 43.5 6q17 0 45-5v-33q-28 5-45 5-32 0-53.5-14.5t-21.5-57.5v-103h107v-33h-107v-481h-38v481h-169zM493 611v103h38v-103h-38zM493 0v514h38v-514h-38z" glyph-name="f_f_i" horiz-adv-x="596" unicode="&#x66;&#x66;&#x69;"/><glyph d="M0 718h512v-718h-512v718zM462 50v617h-412v-617h412zM223 251q0 56 13 81 7 13 18 27.5t28 31.5q16 15 26 26.5t15 21 7 18 2 17.5q0 36-22.5 60.5t-53.5 24.5-53.5-22-28.5-73l-50 8q7 72 44 104.5t91 32.5 89-35.5 35-95.5q0-32-12.5-58.5t-50.5-61.5q-37-33-43-52-6-20-6-72h-46zM222 184h56v-67h-56v67z" glyph-name=".notdef" horiz-adv-x="512"/><glyph glyph-name=".null" horiz-adv-x="500"/><glyph glyph-name=".null" horiz-adv-x="500"/><glyph glyph-name="nonmarkingreturn" horiz-adv-x="0" unicode="&#xd;"/><glyph glyph-name="space" horiz-adv-x="278" unicode="&#x20;"/><glyph d="M106 473v241h48v-241l-12-290h-24zM104 103h51v-103h-51v103z" glyph-name="exclam" horiz-adv-x="259" unicode="&#x21;"/><glyph d="M197 714h38v-229h-38v229zM80 714h38v-229h-38v229z" glyph-name="quotedbl" horiz-adv-x="315" unicode="&#x22;"/><glyph d="M147 231h-117v33h122l24 173h-118v33h123l31 220h33l-31-220h169l31 220h33l-31-220h110v-33h-115l-24-173h111v-33h-116l-32-231h-33l32 231h-169l-32-231h-33zM354 264l24 173h-169l-24-173h169z" glyph-name="numbersign" horiz-adv-x="556" unicode="&#x23;"/><glyph d="M50 235q0-94 51.5-151t156.5-63v333l-47 11q-32 7-63.5 18.5t-57 31-41 50-15.5 76.5q0 17 5 47.5t27.5 61.5 67 54.5 124.5 26.5v49h32v-49q104-2 166-54t66-166h-38q-6 98-57 139.5t-137 43.5v-310l78-19q49-12 82-30.5t53-42 28-51 8-58.5q0-56-21.5-93.5t-56.5-61-80-34-91-11.5v-88h-32v88q-55 5-100.5 20.5t-77.5 45.5-50 75.5-18 110.5h38zM258 393v300q-51-2-86-14.5t-57.5-32.5-32.5-47-10-58q0-35 11.5-58.5t31-39 46-25 56.5-16.5zM290 21q43 0 81 9t67 28.5 46 50 17 74.5q0 57-36 93t-114 56l-61 15v-326z" glyph-name="dollar" horiz-adv-x="556" unicode="&#x24;"/><glyph d="M603 714h40l-465-738h-40zM206 346q-38 0-68.5 14t-52.5 38-33.5 56.5-11.5 68.5q0 37 11.5 69.5t33 57 52.5 38.5 70 14 70-13.5 52-37.5 32-57 11-71q0-36-11.5-68t-33.5-56-52.5-38.5-68.5-14.5zM205 379q30 0 54 12t40.5 32.5 25.5 46.5 9 53q0 29-8 55.5t-24.5 46.5-40.5 32-55 12-55-12-40-32-24.5-46.5-8.5-55.5q0-27 9-53t25.5-46.5 40-32.5 52.5-12zM406 165q0 37 11.5 69.5t33 57 52.5 38.5 70 14 70-13.5 52-37.5 32-57 11-71q0-36-11.5-68t-33.5-56-52.5-38.5-68.5-14.5-68.5 14-52.5 38-33.5 56.5-11.5 68.5zM444 165q0-27 9-53t25.5-46.5 40-32.5 52.5-12q30 0 54 12t40.5 32.5 25.5 46.5 9 53q0 29-8 55.5t-24.5 46.5-40.5 32-55 12-55-12-40-32-24.5-46.5-8.5-55.5z" glyph-name="percent" horiz-adv-x="778" unicode="&#x25;"/><glyph d="M43 170q0 44 17.5 77t44.5 59 60 47 64 41q-17 21-34 41.5t-31 43-23 47-9 53.5q0 28 13 50.5t34 38.5 48 25 55 9q29 0 56-8t48-23.5 33.5-38.5 12.5-53q0-38-13.5-66t-34.5-50.5-47.5-41-52.5-37.5l170-209q11 28 17.5 58t6.5 61h38q-2-39-11.5-77.5t-24.5-73.5l116-143h-51l-87 106q-33-55-85-86.5t-118-31.5q-45 0-83.5 11.5t-67 34-45 57-16.5 79.5zM262 412q22 14 45 30.5t42.5 36.5 32 45 12.5 55q0 20-10 36.5t-25.5 28.5-35.5 18.5-41 6.5-41-6.5-35.5-18.5-25.5-28.5-10-36.5q0-26 10-48.5t24-43 30-39 28-36.5zM81 170q0-35 15-63t39.5-47 55.5-29 64-10q45 0 78.5 17.5t55.5 38.5 33 39.5 11 20.5l-184 229q-28-18-57.5-36.5t-54-41.5-40.5-51.5-16-66.5z" glyph-name="ampersand" horiz-adv-x="593" unicode="&#x26;"/><glyph d="M83 714h38v-229h-38v229z" glyph-name="quotesingle" horiz-adv-x="204" unicode="&#x27;"/><glyph d="M194-184q-61 100-95 215t-34 235q0 123 34 241t97 224h35q-63-106-95.5-223.5t-32.5-241.5q0-120 31-233.5t94-216.5h-34v0z" glyph-name="parenleft" horiz-adv-x="241" unicode="&#x28;"/><glyph d="M10-184q63 106 95.5 223.5t32.5 241.5q0 120-31 233.5t-94 216.5h34q61-100 95-215t34-235q0-123-34-241t-97-224h-35v0z" glyph-name="parenright" horiz-adv-x="241" unicode="&#x29;"/><glyph d="M72 454l81 102-124 41 9 28 123-41v130h29v-130l122 41 10-28-123-41 76-102-22-20-77 106-80-106z" glyph-name="asterisk" horiz-adv-x="352" unicode="&#x2a;"/><glyph d="M48 271h233v233h38v-233h233v-38h-233v-233h-38v233h-233v38z" glyph-name="plus" horiz-adv-x="600" unicode="&#x2b;"/><glyph d="M113 103h51v-103q0-20-3-39.5t-10.5-36.5-20-30-30.5-20v33q11 5 17.5 16.5t10.5 25 5 27.5 1 24h-21v103z" glyph-name="comma" horiz-adv-x="278" unicode="&#x2c;"/><glyph d="M69 291h214v-38h-214v38z" glyph-name="hyphen" horiz-adv-x="352" unicode="&#x2d;"/><glyph d="M113 103h51v-103h-51v103z" glyph-name="period" horiz-adv-x="278" unicode="&#x2e;"/><glyph d="M305 731h41l-318-748h-41z" glyph-name="slash" horiz-adv-x="333" unicode="&#x2f;"/><glyph d="M278-12q-75 0-123 32.5t-76.5 84-39.5 115-11 125.5 11 125.5 39.5 115 76.5 84 123 32.5 123-32.5 76.5-84 39.5-115 11-125.5-11-125.5-39.5-115-76.5-84-123-32.5zM278 21q64 0 105.5 31t65 79 32.5 105 9 109-9 109-32.5 105-65 79-105.5 31q-65 0-106-31t-64.5-79-32.5-105-9-109 9-109 32.5-105 64.5-79 106-31z" glyph-name="zero" horiz-adv-x="556" unicode="&#x30;"/><glyph d="M293 616q-37-39-85-61t-100-27v33q60 9 109 42t80 87h34v-690h-38v616z" glyph-name="one" horiz-adv-x="556" unicode="&#x31;"/><glyph d="M46 0q3 48 22 86.5t48.5 70 66 58.5 74.5 52q37 25 73 50.5t64.5 54.5 45.5 63.5 17 78.5q0 35-14 63.5t-37.5 49-54 31.5-64.5 11q-47 0-82-16.5t-58-45-34.5-67-11.5-83.5h-38q6 126 60.5 185.5t157.5 59.5q44 0 83-11.5t68-35 46-59 17-83.5q0-61-28.5-107.5t-72-84.5-94-71-95-65.5-76-68-35.5-78.5h412v-38h-460v0z" glyph-name="two" horiz-adv-x="556" unicode="&#x32;"/><glyph d="M74 228q-2-48 11.5-86.5t39.5-65 64-41 86-14.5q38 0 74 11t63.5 32.5 44 53.5 16.5 73q0 49-20 81.5t-53 50.5-74.5 24-84.5 3v33q38-2 76.5 3.5t69.5 22 50.5 45.5 19.5 74q0 36-16.5 63t-43 44-59 25.5-63.5 8.5q-45 0-79-15t-56.5-41-34.5-62-14-79h-38q0 51 15.5 93.5t44.5 72.5 70 47 92 17q42 0 81.5-10t70-31 49.5-54 19-79q0-31-9.5-58t-27.5-48-43-34.5-55-17.5v-2q35-4 63-19t47.5-38.5 30-54 10.5-65.5q0-51-19-89t-51-63.5-75-38-91-12.5q-57 0-102.5 16t-77 46.5-47 75-12.5 102.5h38z" glyph-name="three" horiz-adv-x="556" unicode="&#x33;"/><glyph d="M29 214l336 476h38v-481h116v-33h-116v-176h-38v176h-336v38zM365 209v429h-2l-296-429h298z" glyph-name="four" horiz-adv-x="556" unicode="&#x34;"/><glyph d="M75 211q-1-43 14.5-78t42.5-60 63.5-38.5 78.5-13.5q44 0 80 16.5t62 44.5 40 66 14 80-14.5 79-41 64-62.5 43-78 16q-60 0-102-24.5t-75-72.5h-39l72 357h349v-33h-319l-59-275 2-2q30 42 74.5 62.5t96.5 20.5q51 0 94-17.5t74-48.5 48.5-74.5 17.5-94.5-17-95-48-76.5-74-50.5-95-18q-50 0-94 15.5t-77 44-51 70-15 93.5h38z" glyph-name="five" horiz-adv-x="556" unicode="&#x35;"/><glyph d="M288-12q-72 0-119.5 27t-75.5 71.5-39.5 103-11.5 121.5q0 42 4 87.5t14.5 89 28.5 82.5 46.5 68.5 68 46.5 92.5 17q88 0 144.5-47t66.5-135h-38q-6 33-21 60.5t-37.5 47-51.5 30.5-63 11q-71 0-114-37t-65.5-91.5-29.5-117-7-113.5l2-2q11 33 32 60.5t48 47 59 30 67 10.5q51 0 93.5-18t73-49.5 47.5-74.5 17-94q0-50-17.5-92.5t-48-73.5-73-48.5-92.5-17.5zM93 220q0-43 15.5-79.5t41.5-63 61.5-41.5 76.5-15q42 0 77 16t61 43 40.5 63 14.5 77q0 40-14.5 77t-40 65-61 44.5-77.5 16.5q-43 0-78.5-16t-61.5-43.5-40.5-64.5-14.5-79z" glyph-name="six" horiz-adv-x="556" unicode="&#x36;"/><glyph d="M160 0q6 74 20.5 150t47.5 156.5 89.5 167.5 145.5 183h-407v33h445v-38q-52-58-100.5-119t-88-137-68-172.5-40.5-223.5h-44v0z" glyph-name="seven" horiz-adv-x="556" unicode="&#x37;"/><glyph d="M39 198q0 75 40.5 122.5t112.5 55.5v2q-63 12-95 52.5t-32 98.5q0 49 18 82t48 53 68 29 79 9q40 0 78.5-9t68.5-29 48-53 18-82q0-58-32-98.5t-95-52.5v-2q72-8 112.5-55.5t40.5-122.5q0-54-19-93.5t-51-65.5-76-38.5-93-12.5q-50 0-93.5 12.5t-75.5 38.5-51 65.5-19 93.5zM278 392q33 0 64.5 7.5t56 24 39.5 42.5 15 63q0 39-14.5 66t-39 43.5-56 23.5-65.5 7-65.5-7-56-23.5-39-43.5-14.5-66q0-37 15-63t39.5-42.5 56-24 64.5-7.5zM77 198q0-46 16.5-79.5t44-55 64-32 76.5-10.5 76 10.5 64 32 44.5 55 16.5 79.5q0 43-16 73.5t-44 50-64.5 28.5-76.5 9q-41 0-77-9t-64-28.5-44-50-16-73.5z" glyph-name="eight" horiz-adv-x="556" unicode="&#x38;"/><glyph d="M93 170q12-66 57.5-107.5t115.5-41.5q47 0 81.5 17.5t58.5 46 39 65.5 23 76 11 77 3 69l-2 2q-11-29-28.5-54t-42.5-44.5-57.5-30.5-72.5-11q-52 0-95 17.5t-73.5 49-47.5 74.5-17 95q0 51 17.5 93.5t48.5 73.5 73.5 48 93.5 17q26 0 54.5-5t55-17.5 50.5-35.5 42-58.5 28.5-86.5 10.5-120q0-42-4-87.5t-14.5-89-28.5-82.5-46.5-68.5-68-46.5-92.5-17q-88 0-144.5 47t-66.5 135h38zM279 267q43 0 78.5 16t61.5 43.5 40.5 64.5 14.5 79q0 41-15 77.5t-41 63.5-61.5 42.5-77.5 15.5-77.5-16-61.5-43-41-63.5-15-76.5q0-41 15-78t41-64.5 61.5-44 77.5-16.5z" glyph-name="nine" horiz-adv-x="556" unicode="&#x39;"/><glyph d="M113 514h51v-103h-51v103zM113 103h51v-103h-51v103z" glyph-name="colon" horiz-adv-x="278" unicode="&#x3a;"/><glyph d="M113 514h51v-103h-51v103zM113 103h51v-103q0-20-3-39.5t-10.5-36.5-20-30-30.5-20v33q11 5 17.5 16.5t10.5 25 5 27.5 1 24h-21v103z" glyph-name="semicolon" horiz-adv-x="278" unicode="&#x3b;"/><glyph d="M46 280l508 234v-42l-475-218 475-220v-42l-508 236v52z" glyph-name="less" horiz-adv-x="600" unicode="&#x3c;"/><glyph d="M48 369h504v-38h-504v38zM48 175h504v-38h-504v38z" glyph-name="equal" horiz-adv-x="600" unicode="&#x3d;"/><glyph d="M46 34l475 218-475 220v42l508-236v-52l-508-234v42z" glyph-name="greater" horiz-adv-x="600" unicode="&#x3e;"/><glyph d="M236 181q0 40 7 70.5t19 54.5 28 43.5 34 36.5 36 35.5 32 38.5 22.5 43 8.5 49q0 37-13.5 63.5t-36 44-51.5 25.5-60 8q-45 0-79-15t-56.5-42-34-63.5-11.5-79.5h-38q0 53 14.5 97t42.5 75.5 69.5 48.5 95.5 17q40 0 75.5-11t62.5-33 42.5-56 15.5-79q0-32-7.5-56.5t-20-44.5-28.5-36.5-33-32.5q-17-15-34.5-31.5t-31.5-39.5-23-54.5-9-75.5h-38zM231 103h51v-103h-51v103z" glyph-name="question" unicode="&#x3f;"/><glyph d="M195 282q0 52 17.5 105t49 96 74.5 70 95 27q24 0 43.5-7.5t33.5-20.5 23-29 12-34h2l23 71h41l-96-296q-5-16-10.5-32.5t-5.5-27.5q0-15 11.5-24.5t27.5-9.5q34 0 66.5 23.5t57.5 60.5 40.5 82 15.5 87q0 63-26 113.5t-68 86.5-96 55.5-109 19.5q-69 0-129.5-27.5t-105.5-75-71.5-110-26.5-132.5q0-74 29-136t76-106.5 107-69.5 123-25q84 0 156.5 41.5t118.5 110.5h44q-23-43-57.5-77t-76.5-58-89.5-37-95.5-13q-80 0-148 29.5t-118 80.5-78.5 120-28.5 147q0 77 29.5 144.5t80 118 117.5 79.5 142 29q71 0 133-23t107.5-64.5 72-98.5 26.5-125q0-57-21-109t-54.5-91.5-74-63.5-79.5-24q-26 0-45.5 17.5t-20.5 53.5h-2q-24-35-58-53t-76-18q-29 0-52.5 12t-40 32.5-26 48-9.5 57.5zM233 287q0-57 29-89.5t74-32.5q29 0 60.5 22.5t55.5 56.5q28 41 46.5 92.5t18.5 92.5q0 14-2.5 34t-12 39-28 32-49.5 13q-42 0-77.5-26t-61-65-39.5-84.5-14-84.5z" glyph-name="at" horiz-adv-x="800" unicode="&#x40;"/><glyph d="M275 714h48l282-714h-47l-90 229h-342l-91-229h-47zM454 267l-153 404h-2l-159-404h314z" glyph-name="A" horiz-adv-x="593" unicode="&#x41;"/><glyph d="M63 714h286q64 0 107-16t69-42 37.5-59.5 11.5-67.5q0-29-10-55t-28.5-46-44-33.5-56.5-17.5l2-2q7 1 33-6t54.5-26.5 51-54 22.5-88.5q0-49-18-86t-50.5-62.5-78.5-38.5-102-13h-286v714zM349 390q91 0 136 40.5t45 106.5q0 39-15 65.5t-40 43-57.5 23.5-68.5 7h-242v-286h242zM349 38q96 0 150.5 40.5t54.5 121.5q0 46-19 75.5t-48.5 46.5-66 23.5-71.5 6.5h-242v-314h242z" glyph-name="B" horiz-adv-x="630" unicode="&#x42;"/><glyph d="M36 357q0 78 23 146.5t66.5 119 107 79.5 143.5 29q63 0 109-16.5t77.5-41 51.5-53.5 30.5-54.5 14.5-44 4-20.5h-44q-7 45-29 80.5t-55 60.5-73.5 38-85.5 13q-70 0-125-27t-93-72.5-58-106.5-20-130 20-130 58-106.5 93-72.5 125-27q52 0 97.5 21.5t79.5 57 54.5 82 23.5 96.5h44q-6-64-31.5-118t-65-93.5-91.5-61.5-111-22q-80 0-143.5 29t-107 79.5-66.5 119-23 146.5z" glyph-name="C" horiz-adv-x="704" unicode="&#x43;"/><glyph d="M63 714h234q96 0 159.5-30t101.5-80 53.5-114 15.5-132q0-76-19.5-141.5t-60.5-113.5-103.5-75.5-148.5-27.5h-232v714zM299 38q50 0 100.5 15.5t91.5 52 66.5 98 25.5 154.5q0 73-14.5 125t-38 87.5-54 56-63 31.5-65 14.5-58.5 3.5h-183v-638h192z" glyph-name="D" horiz-adv-x="667" unicode="&#x44;"/><glyph d="M63 714h480v-38h-436v-286h410v-38h-410v-314h441v-38h-485v714z" glyph-name="E" horiz-adv-x="560" unicode="&#x45;"/><glyph d="M63 714h448v-38h-404v-286h364v-38h-364v-352h-44v714z" glyph-name="F" horiz-adv-x="514" unicode="&#x46;"/><glyph d="M37 353q0 76 22.5 144.5t65.5 120.5 105.5 82.5 143.5 30.5q55 0 105-16t89.5-47 66.5-75 36-100h-42q-25 94-90 147t-164 53q-72 0-127-28t-92-75-56-108.5-19-128.5q0-68 18.5-128.5t55-105.5 91.5-71.5 129-26.5q64 0 115 21t86.5 59 53.5 91.5 15 119.5h-263v38h301v-350h-38v152h-2q-13-39-39-70.5t-61.5-53-79-33.5-90.5-12q-81 0-143.5 29t-105.5 79-65 117.5-22 144.5z" glyph-name="G" horiz-adv-x="741" unicode="&#x47;"/><glyph d="M63 714h44v-324h456v324h44v-714h-44v352h-456v-352h-44v714z" glyph-name="H" horiz-adv-x="670" unicode="&#x48;"/><glyph d="M63 714h44v-714h-44v714z" glyph-name="I" horiz-adv-x="170" unicode="&#x49;"/><glyph d="M217 21q61 0 93.5 20t46.5 51 15.5 69.5 1.5 75.5v477h44v-492q0-21-.5-47t-6-52.5-17-51.5-33.5-44.5-55.5-31.5-83.5-12q-72 0-113 23t-60.5 59-24 79-4.5 83h44q-3-40 1-77t20-65.5 47.5-46 84.5-17.5z" glyph-name="J" horiz-adv-x="481" unicode="&#x4a;"/><glyph d="M63 714h44v-411l449 411h57l-326-297 346-417h-55l-323 387-148-135v-252h-44v714z" glyph-name="K" horiz-adv-x="613" unicode="&#x4b;"/><glyph d="M63 714h44v-676h405v-38h-449v714z" glyph-name="L" horiz-adv-x="500" unicode="&#x4c;"/><glyph d="M63 714h63l279-665h2l276 665h63v-714h-44v660h-2l-272-660h-44l-275 660h-2v-660h-44v714z" glyph-name="M" horiz-adv-x="809" unicode="&#x4d;"/><glyph d="M63 714h55l451-655h2v655h44v-714h-52l-454 660h-2v-660h-44v714z" glyph-name="N" horiz-adv-x="678" unicode="&#x4e;"/><glyph d="M710 357q0-78-23-146.5t-66.5-119-106.5-79.5-143-29-143.5 29-107 79.5-66.5 119-23 146.5 23 146.5 66.5 119 107 79.5 143.5 29 143-29 106.5-79.5 66.5-119 23-146.5zM75 357q0-69 20-130t58-106.5 93-72.5 125-27 124.5 27 92.5 72.5 58 106.5 20 130-20 130-58 106.5-92.5 72.5-124.5 27-125-27-93-72.5-58-106.5-20-130z" glyph-name="O" horiz-adv-x="741" unicode="&#x4f;"/><glyph d="M63 714h304q30 0 66.5-7t68-28.5 52.5-61 21-103.5q0-94-58-145t-166-51h-244v-318h-44v714zM107 356h251q48 0 81.5 14.5t53.5 37.5 29 51 9 56q0 20-6 47.5t-24 53-50.5 43-86.5 17.5h-257v-320z" glyph-name="P" horiz-adv-x="591" unicode="&#x50;"/><glyph d="M573 48q-83-65-202-65-80 0-143.5 29t-107 79.5-66.5 119-23 146.5 23 146.5 66.5 119 107 79.5 143.5 29 143-29 106.5-79.5 66.5-119 23-146.5q0-88-27.5-160t-79.5-123l111-80-23-31zM568 99q48 48 73 114t25 144q0 69-20 130t-58 106.5-92.5 72.5-124.5 27-125-27-93-72.5-58-106.5-20-130 20-130 58-106.5 93-72.5 125-27q99 0 167 53l-108 77 23 31z" glyph-name="Q" horiz-adv-x="741" unicode="&#x51;"/><glyph d="M63 714h298q47 0 88-9.5t72-31 48.5-56.5 17.5-87q0-72-40.5-121.5t-112.5-61.5v-2q49-6 77.5-26t42.5-49 18-64 4-70v-41t2-37.5 6.5-32.5 12.5-25h-49q-14 25-15.5 58.5t-1.5 69.5-3 71.5-19 63.5-50.5 45-97.5 17h-254v-325h-44v714zM361 363q39 0 72.5 9.5t57.5 29.5 38 51 14 74q0 40-15 68.5t-40 46.5-58 26-69 8h-254v-313h254z" glyph-name="R" horiz-adv-x="630" unicode="&#x52;"/><glyph d="M529 510q-2 46-19.5 80t-47.5 57-71.5 34.5-90.5 11.5q-30 0-64.5-7t-64-24.5-48.5-47-19-73.5q0-43 21-70t55-43.5 78-26.5 89-19q46-9 89.5-21.5t78-34 55.5-56 21-86.5q0-56-24-94t-60.5-62-81-34.5-85.5-10.5q-63 0-118 13.5t-96 44-64.5 78.5-22.5 117h44q-3-59 17-99.5t55.5-66.5 83.5-37.5 101-11.5q32 0 68.5 8t67 27 51 50 20.5 78q0 45-21 73.5t-55.5 46-78 28-89.5 19.5q-45 9-89 21t-78 32.5-55 53-21 83.5 21.5 87.5 56 59 77.5 33 85 10.5q56 0 104.5-12.5t85-39 58.5-68.5 25-101h-44z" glyph-name="S" horiz-adv-x="630" unicode="&#x53;"/><glyph d="M-14 676v38h547v-38h-252v-676h-44v676h-251z" glyph-name="T" unicode="&#x54;"/><glyph d="M107 714v-428q0-21 2-49t10-57.5 22.5-58 39.5-51 61.5-36 88.5-13.5q66 0 110.5 18.5t72 53 39.5 83.5 12 110v428h44v-428q0-64-13.5-119t-45.5-96-85.5-64.5-133.5-23.5q-63 0-108 16t-74.5 41.5-46.5 58.5-26 66.5-11 65-2 55.5v428h44z" glyph-name="U" horiz-adv-x="672" unicode="&#x55;"/><glyph d="M277 38h2l247 676h44l-267-714h-51l-266 714h46z" glyph-name="V" horiz-adv-x="556" unicode="&#x56;"/><glyph d="M-6 714h45l186-667h2l189 667h55l192-667h2l183 667h47l-205-714h-50l-196 676h-2l-193-676h-49z" glyph-name="W" horiz-adv-x="889" unicode="&#x57;"/><glyph d="M1 714h51l226-314 231 314h50l-252-347 266-367h-53l-242 334-243-334h-52l268 367z" glyph-name="X" horiz-adv-x="556" unicode="&#x58;"/><glyph d="M546 714h49l-287-415v-299h-44v299l-285 415h50l258-378z" glyph-name="Y" horiz-adv-x="574" unicode="&#x59;"/><glyph d="M28 714h501v-38l-484-638h493v-38h-539v38l482 638h-453v38z" glyph-name="Z" horiz-adv-x="537" unicode="&#x5a;"/><glyph d="M132 698v-849h99v-33h-137v915h137v-33h-99z" glyph-name="bracketleft" horiz-adv-x="241" unicode="&#x5b;"/><glyph d="M305-17l-318 748h41l318-748h-41z" glyph-name="backslash" horiz-adv-x="333" unicode="&#x5c;"/><glyph d="M109-151v849h-99v33h137v-915h-137v33h99z" glyph-name="bracketright" horiz-adv-x="241" unicode="&#x5d;"/><glyph d="M519 237l-218 420-220-420h-42l236 453h52l234-453h-42z" glyph-name="asciicircum" horiz-adv-x="600" unicode="&#x5e;"/><glyph d="M0-125v50h500v-50h-500z" glyph-name="underscore" horiz-adv-x="500" unicode="&#x5f;"/><glyph d="M104 590l-134 140h51l120-140h-37z" glyph-name="grave" horiz-adv-x="167" unicode="&#x60;"/><glyph d="M397 102h-2q-9-23-26-43.5t-41.5-36.5-55.5-25-68-9q-82 0-127 35.5t-45 109.5q0 45 18 73.5t45.5 45 61 23.5 64.5 10l59 5q41 3 64.5 9.5t35.5 18 15 29.5 3 45q0 21-8 39t-25 32-44 22-66 8q-69 0-111.5-34t-46.5-103h-38q4 85 54.5 127.5t143.5 42.5 135.5-36.5 42.5-95.5v-299q0-11 .5-22t3.5-20 10-14.5 20-5.5q10 0 28 3v-32q-15-4-31-4-23 0-36.5 6t-20.5 16-9.5 23.5-2.5 29.5v27zM397 292q-14-17-42.5-23t-63.5-9l-64-6q-28-3-56-8.5t-50.5-18.5-36.5-35.5-14-58.5q0-57 36-84.5t99-27.5q65 0 103 23.5t58 54 25.5 59 5.5 38.5v96z" glyph-name="a" horiz-adv-x="500" unicode="&#x61;"/><glyph d="M65 714h38v-309h2q11 30 31 52.5t46 38 56 23 62 7.5q57 0 98.5-20t69.5-55 41.5-81.5 13.5-100.5q0-92-25-147.5t-60-85-73-39-65-9.5q-51 0-86.5 16t-58.5 37.5-35 42.5-15 31h-2v-115h-38v714zM300 21q51 0 86 22t57 57.5 32 80 10 88.5q0 43-11.5 83t-35 71.5-58 50.5-80.5 19q-50 0-87-17t-61-47-36-71-12-89q0-47 11-92t34.5-79.5 60.5-55.5 90-21z" glyph-name="b" horiz-adv-x="556" unicode="&#x62;"/><glyph d="M443 355q-3 34-17.5 60t-37.5 43-53.5 26-65.5 9q-48 0-85-19.5t-62-52-38-74-13-85.5q0-52 12-96t37-76.5 62-50.5 87-18q36 0 66.5 12t54 33 38.5 50.5 20 64.5h38q-6-46-25-82t-48-60.5-66-37.5-78-13q-63 0-107.5 22.5t-73 60.5-42 87.5-13.5 103.5 15.5 102 45.5 84 74 57 101 21q42 0 78.5-10.5t65-31.5 46.5-53.5 22-75.5h-38z" glyph-name="c" unicode="&#x63;"/><glyph d="M453 110h-2q-32-61-80-91.5t-117-30.5q-58 0-100 22t-69 59-40 85.5-13 101.5q0 57 14 106.5t42.5 85.5 71.5 57 101 21q31 0 61-8.5t55.5-24.5 44.5-40 29-54h2v315h38v-714h-38v110zM262 21q49 0 84.5 20t59 53 35 75.5 11.5 86.5q0 45-11.5 87.5t-34.5 76-59.5 53.5-85.5 20q-51 0-87-19.5t-59.5-52.5-34-76-10.5-89q0-45 11.5-87.5t35-75.5 59.5-52.5 86-19.5z" glyph-name="d" horiz-adv-x="556" unicode="&#x64;"/><glyph d="M71 252v-6q0-45 12-86t35.5-72 59-49 82.5-18q77 0 122 40.5t62 112.5h38q-17-90-73.5-138t-149.5-48q-57 0-99.5 20.5t-71 56-42.5 84-14 104.5q0 54 14.5 103.5t43.5 87 72.5 60 102.5 22.5q54 0 95.5-20t69.5-54.5 42.5-80 14.5-97.5q0-5-.5-11.5t-.5-10.5h-415zM448 285q-2 42-14 79.5t-35.5 66-57 45.5-76.5 17q-46 0-81-17.5t-59-46-37-66.5-16-78h376z" glyph-name="e" unicode="&#x65;"/><glyph d="M0 481v33h92v106q0 27 9 46.5t24.5 31.5 36 18 43.5 6q17 0 45-5v-33q-28 5-45 5-32 0-53.5-14.5t-21.5-57.5v-103h107v-33h-107v-481h-38v481h-92z" glyph-name="f" horiz-adv-x="241" unicode="&#x66;"/><glyph d="M481 514v-487q0-43-10-83.5t-34.5-71.5-67.5-49.5-109-18.5q-41 0-77 8.5t-63 27-43.5 49-18.5 75.5h38q3-34 17-58t36.5-39.5 50.5-22.5 60-7q53 0 88.5 16t56.5 41.5 29.5 58 8.5 65.5v118h-2q-27-57-73.5-87t-112.5-30q-57 0-98.5 19.5t-69 54-41 80.5-13.5 100q0 51 14.5 97t42.5 80.5 69.5 55 95.5 20.5q61 0 112.5-31t73.5-88h2v107h38zM255 493q-47 0-81.5-19t-57-50-34-70.5-11.5-80.5q0-45 11.5-85.5t35-70.5 58-47.5 79.5-17.5q47 0 82 18t58.5 49 35 70.5 11.5 83.5q0 43-11.5 83t-35 70.5-58.5 48.5-82 18z" glyph-name="g" horiz-adv-x="537" unicode="&#x67;"/><glyph d="M94 714v-310h2q10 29 28.5 51.5t43 38.5 53.5 24 59 8q45 0 76.5-11t51.5-29 31.5-40.5 16.5-45.5 6-44.5 1-37.5v-318h-38v325q0 19-3 48t-17.5 55.5-44 45.5-81.5 19q-44 0-78-16t-58-44.5-36.5-68-12.5-86.5v-278h-38v714h38z" glyph-name="h" unicode="&#x68;"/><glyph d="M65 611v103h38v-103h-38zM65 0v514h38v-514h-38z" glyph-name="i" horiz-adv-x="168" unicode="&#x69;"/><glyph d="M65 611v103h38v-103h-38zM103 514v-569q0-26-4-49.5t-15.5-41-32-28-53.5-10.5h-16-8t-8 1v33q5-1 11-1.5t14-.5q20 0 34 4.5t23 16 13 31 4 48.5v566h38z" glyph-name="j" horiz-adv-x="168" unicode="&#x6a;"/><glyph d="M58 714h38v-473l317 273h55l-225-192 241-322h-52l-219 293-117-99v-194h-38v714z" glyph-name="k" horiz-adv-x="463" unicode="&#x6b;"/><glyph d="M103 714v-714h-38v714h38z" glyph-name="l" horiz-adv-x="168" unicode="&#x6c;"/><glyph d="M57 514h38v-105h2q6 24 21 45.5t36.5 37.5 48 25 55.5 9q37 0 64-9.5t46-25 30-35 15-39.5h2q23 54 61.5 81.5t101.5 27.5q35 0 64.5-10.5t51-32 33.5-54.5 12-78v-351h-38v352q0 49-15 77t-35.5 42.5-41 18-31.5 3.5q-35 0-64.5-12t-51-36-33.5-59.5-12-81.5v-304h-38v352q0 48-14.5 76.5t-34 42.5-40 18-32.5 4q-27 0-56-11t-53-34-39-59-15-85v-304h-38v514z" glyph-name="m" horiz-adv-x="796" unicode="&#x6d;"/><glyph d="M56 514h38v-110h2q10 29 28.5 51.5t43 38.5 53.5 24 59 8q45 0 76.5-11t51.5-29 31.5-40.5 16.5-45.5 6-44.5 1-37.5v-318h-38v325q0 19-3 48t-17.5 55.5-44 45.5-81.5 19q-44 0-78-16t-58-44.5-36.5-68-12.5-86.5v-278h-38v514z" glyph-name="n" unicode="&#x6e;"/><glyph d="M32 257q0 55 15.5 103.5t45.5 85.5 74 58.5 101 21.5 101-21.5 74-58.5 45.5-85.5 15.5-103.5-15.5-104-45.5-85.5-74-58-101-21.5-101 21.5-74 58-45.5 85.5-15.5 104zM70 257q0-46 13-88.5t38-75.5 62-52.5 85-19.5 85 19.5 62 52.5 38 75.5 13 88.5-13 88.5-38 75.5-62 52.5-85 19.5-85-19.5-62-52.5-38-75.5-13-88.5z" glyph-name="o" horiz-adv-x="537" unicode="&#x6f;"/><glyph d="M103 396h2q6 19 20 42t37 42.5 55.5 32.5 74.5 13q59 0 102.5-22t72-59 42.5-86 14-103q0-59-14-108t-42.5-84.5-72-55.5-102.5-20q-64 0-114 28t-73 91h-2v-291h-38v698h38v-118zM292 21q50 0 86.5 19t60 51 35 74.5 11.5 90.5q0 44-11 86.5t-34 76-59.5 54-88.5 20.5q-51 0-87-20t-58.5-53-32.5-75.5-10-88.5 9-88.5 30.5-75 58-52 90.5-19.5z" glyph-name="p" horiz-adv-x="556" unicode="&#x70;"/><glyph d="M453 115h-2q-10-30-29-54t-44.5-40-55.5-24.5-61-8.5q-58 0-101 21t-71.5 57-42.5 85.5-14 106.5q0 53 13 101.5t40 85.5 69 59 100 22q69 0 117-30.5t80-91.5h2v110h38v-698h-38v299zM261 21q49 0 85.5 20t59.5 53.5 34.5 76 11.5 87.5q0 44-11.5 86.5t-35 75.5-59 53-84.5 20q-50 0-86-19.5t-59.5-52.5-35-75.5-11.5-87.5q0-47 10.5-89.5t34-75.5 59.5-52.5 87-19.5z" glyph-name="q" horiz-adv-x="556" unicode="&#x71;"/><glyph d="M94 400h3q7 25 25.5 47t45 38 59 24.5 67.5 7.5v-38q-30 4-68.5-6t-73.5-44q-14-15-24.5-29t-17.5-31-11-38-5-50v-281h-38v514h38v-114z" glyph-name="r" horiz-adv-x="278" unicode="&#x72;"/><glyph d="M74 171q2-36 16-63.5t36.5-47 52.5-29.5 65-10q25 0 53.5 4.5t53 16.5 40.5 33.5 16 54.5q0 43-26 65t-65.5 34-85 19.5-85 22.5-65.5 42.5-26 80.5q0 38 17 63.5t43.5 40.5 59.5 21.5 66 6.5q40 0 75-9t60.5-29 40-51 14.5-75h-38q0 35-11.5 60t-32 40.5-48.5 23-60 7.5q-26 0-52.5-5t-47.5-17-34.5-31-13.5-46q0-31 15-50t39.5-30.5 55-18.5 61.5-14q38-7 71.5-16.5t58-26 38.5-42.5 14-66q0-42-19-69t-48-43.5-64.5-23-69.5-6.5q-44 0-81.5 11.5t-65.5 35-44 57.5-17 79h38z" glyph-name="s" horiz-adv-x="481" unicode="&#x73;"/><glyph d="M245 481h-112v-359q0-31 7-49t21.5-27.5 35-11.5 47.5-1v-33q-29-2-56.5.5t-48.5 15-33.5 37.5-10.5 69v359h-95v33h95v160h38v-160h112v-33z" glyph-name="t" horiz-adv-x="259" unicode="&#x74;"/><glyph d="M463 0h-38v110h-2q-10-29-28.5-51.5t-43-38.5-53.5-24-59-8q-45 0-76.5 11t-51.5 29-31.5 40.5-16.5 45.5-6 44.5-1 37.5v318h38v-325q0-20 3-48.5t17.5-55 43.5-45.5 82-19q43 0 77.5 16t58.5 44.5 36.5 68 12.5 86.5v278h38v-514z" glyph-name="u" unicode="&#x75;"/><glyph d="M252 0h-47l-207 514h44l186-470h2l174 470h42z" glyph-name="v" horiz-adv-x="444" unicode="&#x76;"/><glyph d="M184 44h2l140 470h51l141-470h2l144 470h42l-165-514h-47l-141 466h-2l-142-466h-48l-163 514h41z" glyph-name="w" horiz-adv-x="704" unicode="&#x77;"/><glyph d="M196 270l-188 244h53l161-215 162 215h49l-186-244 203-270h-52l-176 241-180-241h-48z" glyph-name="x" horiz-adv-x="444" unicode="&#x78;"/><glyph d="M-6 514h45l191-469 176 469h43l-220-569q-16-38-29.5-65.5t-30.5-40.5q-20-16-47.5-19.5t-72.5-3.5v33q41 0 64 6.5t43 26.5q11 11 23 40.5t30 80.5z" glyph-name="y" horiz-adv-x="444" unicode="&#x79;"/><glyph d="M417 33v-33h-408v36l345 445h-318v33h365v-36l-346-445h362z" glyph-name="z" horiz-adv-x="426" unicode="&#x7a;"/><glyph d="M293 698h-48q-31 0-41.5-23t-10.5-80v-157q0-50-9-80.5t-21-47.5-23.5-24-16.5-10q5-5 16.5-13t23.5-25.5 21-48 9-80.5v-157q0-57 10.5-80t41.5-23h48v-33h-50q-42 0-65 25t-23 93v158q0 30-3 59t-11 51.5-22 36.5-36 15v38q22 1 36 15t22 36.5 11 51.5 3 59v159q0 68 23 93t65 25h50v-33z" glyph-name="braceleft" horiz-adv-x="333" unicode="&#x7b;"/><glyph d="M92 786h38v-1000h-38v1000z" glyph-name="bar" horiz-adv-x="222" unicode="&#x7c;"/><glyph d="M40-151h48q31 0 41.5 23t10.5 80v157q0 50 9 80.5t21 48 23.5 25.5 16.5 13q-5 3-16.5 10t-23.5 24-21 47.5-9 80.5v157q0 57-10.5 80t-41.5 23h-48v33h50q42 0 65-25t23-93v-159q0-30 3-59t11-51.5 22-36.5 36-15v-38q-22-1-36-15t-22-36.5-11-51.5-3-59v-158q0-68-23-93t-65-25h-50v33z" glyph-name="braceright" horiz-adv-x="333" unicode="&#x7d;"/><glyph d="M528 284q-10-15-22-30t-26.5-27.5-32.5-20-40-7.5q-28 0-54 10.5t-60 27.5q-9 4-20.5 9.5t-24 10-25 7.5-22.5 3q-22 0-38.5-7t-28.5-18.5-19.5-24.5-12.5-25l-29 30q23 38 49.5 60.5t72.5 22.5q30 0 53.5-8.5t57.5-23.5q21-10 45.5-23t56.5-13q14 0 28 7t26 18.5 22 24.5 16 25z" glyph-name="asciitilde" horiz-adv-x="600" unicode="&#x7e;"/><glyph glyph-name="uni00A0" horiz-adv-x="278" unicode="&#xa0;"/><glyph d="M275 714h48l282-714h-47l-90 229h-342l-91-229h-47zM454 267l-153 404h-2l-159-404h314zM290 780l-134 140h51l120-140h-37z" glyph-name="Agrave" horiz-adv-x="593" unicode="&#xc0;"/><glyph d="M275 714h48l282-714h-47l-90 229h-342l-91-229h-47zM454 267l-153 404h-2l-159-404h314zM394 920h51l-134-140h-37z" glyph-name="Aacute" horiz-adv-x="593" unicode="&#xc1;"/><glyph d="M275 714h48l282-714h-47l-90 229h-342l-91-229h-47zM454 267l-153 404h-2l-159-404h314zM320 920l116-140h-38l-98 115-97-115h-38l115 140h40z" glyph-name="Acircumflex" horiz-adv-x="593" unicode="&#xc2;"/><glyph d="M275 714h48l282-714h-47l-90 229h-342l-91-229h-47zM454 267l-153 404h-2l-159-404h314zM155 799q1 16 7 32.5t15.5 29 23.5 20.5 32 8q19 0 37-9t35-19.5 33.5-19.5 31.5-9q21 0 32 18.5t13 38.5h29q-2-17-7-33t-14-28.5-22.5-20.5-32.5-8q-17 0-34 9t-34.5 19.5-34.5 19.5-34 9q-20 0-31.5-17t-15.5-40h-29z" glyph-name="Atilde" horiz-adv-x="593" unicode="&#xc3;"/><glyph d="M275 714h48l282-714h-47l-90 229h-342l-91-229h-47zM454 267l-153 404h-2l-159-404h314zM357 793v103h44v-103h-44zM199 793v103h44v-103h-44z" glyph-name="Adieresis" horiz-adv-x="593" unicode="&#xc4;"/><glyph d="M275 714h48l282-714h-47l-90 229h-342l-91-229h-47zM454 267l-153 404h-2l-159-404h314zM179 828v33h242v-33h-242z" glyph-name="Amacron" horiz-adv-x="593" unicode="&#x100;"/><glyph d="M275 714h48l282-714h-47l-90 229h-342l-91-229h-47zM454 267l-153 404h-2l-159-404h314zM436 910q-3-24-14.5-46t-29-38.5-40-26-47.5-9.5q-57 0-95 31.5t-45 88.5h33q6-26 18-43t26.5-27 30.5-13.5 31-3.5q39 0 65.5 24t33.5 63h33z" glyph-name="Abreve" horiz-adv-x="593" unicode="&#x102;"/><glyph d="M275 714h48l282-714h-47l-90 229h-342l-91-229h-47zM454 267l-153 404h-2l-159-404h314zM201 850q0 42 28.5 70.5t70.5 28.5 70.5-28.5 28.5-70.5-28.5-70.5-70.5-28.5-70.5 28.5-28.5 70.5zM228 850q0-30 21-51t51-21 51 21 21 51-21 51-51 21-51-21-21-51z" glyph-name="Aring" horiz-adv-x="593" unicode="&#xc5;"/><glyph d="M347 949h51l-95-94h-37zM382 759q0-26-13-45t-35-29l271-685h-47l-90 229h-342l-91-229h-47l276 687q-20 10-32 28t-12 44q0 35 23 57.5t58 22.5 58-22.5 23-57.5zM301 814q-24 0-39.5-15.5t-15.5-39.5q0-23 16-39t39-16q24 0 39.5 15.5t15.5 39.5q0 23-16 39t-39 16zM454 267l-153 406h-2l-159-406h314z" glyph-name="Aringacute" horiz-adv-x="593" unicode="&#x1fa;"/><glyph d="M468 229h-342l-91-229h-47l287 714h48l282-714h-22q-25-22-41-39t-25-31.5-12.5-26.5-3.5-24q0-20 12.5-31t30.5-11q19 0 32 7.5t26 27.5l23-8q-25-60-86-60-37 0-59.5 16.5t-22.5 51.5q0 12 4 25t15 29 30.5 34.5 51.5 39.5zM454 267l-153 404h-2l-159-404h314z" glyph-name="Aogonek" horiz-adv-x="593" unicode="&#x104;"/><glyph d="M364 714h490v-38h-379v-286h350v-38h-350v-314h380v-38h-424v254h-268l-132-254h-40zM431 676h-47l-201-384h248v384z" glyph-name="AE" horiz-adv-x="870" unicode="&#xc6;"/><glyph d="M364 714h490v-38h-379v-286h350v-38h-350v-314h380v-38h-424v254h-268l-132-254h-40zM431 676h-47l-201-384h248v384zM648 920h51l-134-140h-37z" glyph-name="AEacute" horiz-adv-x="870" unicode="&#x1fc;"/><glyph d="M36 357q0 78 23 146.5t66.5 119 107 79.5 143.5 29q63 0 109-16.5t77.5-41 51.5-53.5 30.5-54.5 14.5-44 4-20.5h-44q-7 45-29 80.5t-55 60.5-73.5 38-85.5 13q-70 0-125-27t-93-72.5-58-106.5-20-130 20-130 58-106.5 93-72.5 125-27q52 0 97.5 21.5t79.5 57 54.5 82 23.5 96.5h44q-6-64-31.5-118t-65-93.5-91.5-61.5-111-22q-80 0-143.5 29t-107 79.5-66.5 119-23 146.5zM456 920h51l-134-140h-37z" glyph-name="Cacute" horiz-adv-x="704" unicode="&#x106;"/><glyph d="M36 357q0 78 23 146.5t66.5 119 107 79.5 143.5 29q63 0 109-16.5t77.5-41 51.5-53.5 30.5-54.5 14.5-44 4-20.5h-44q-7 45-29 80.5t-55 60.5-73.5 38-85.5 13q-70 0-125-27t-93-72.5-58-106.5-20-130 20-130 58-106.5 93-72.5 125-27q52 0 97.5 21.5t79.5 57 54.5 82 23.5 96.5h44q-6-64-31.5-118t-65-93.5-91.5-61.5-111-22q-80 0-143.5 29t-107 79.5-66.5 119-23 146.5zM392 920l116-140h-38l-98 115-97-115h-38l115 140h40z" glyph-name="Ccircumflex" horiz-adv-x="704" unicode="&#x108;"/><glyph d="M36 357q0 78 23 146.5t66.5 119 107 79.5 143.5 29q63 0 109-16.5t77.5-41 51.5-53.5 30.5-54.5 14.5-44 4-20.5h-44q-7 45-29 80.5t-55 60.5-73.5 38-85.5 13q-70 0-125-27t-93-72.5-58-106.5-20-130 20-130 58-106.5 93-72.5 125-27q52 0 97.5 21.5t79.5 57 54.5 82 23.5 96.5h44q-6-64-31.5-118t-65-93.5-91.5-61.5-111-22q-80 0-143.5 29t-107 79.5-66.5 119-23 146.5zM352 780l-115 140h38l97-115 98 115h38l-116-140h-40z" glyph-name="Ccaron" horiz-adv-x="704" unicode="&#x10c;"/><glyph d="M36 357q0 78 23 146.5t66.5 119 107 79.5 143.5 29q63 0 109-16.5t77.5-41 51.5-53.5 30.5-54.5 14.5-44 4-20.5h-44q-7 45-29 80.5t-55 60.5-73.5 38-85.5 13q-70 0-125-27t-93-72.5-58-106.5-20-130 20-130 58-106.5 93-72.5 125-27q52 0 97.5 21.5t79.5 57 54.5 82 23.5 96.5h44q-6-64-31.5-118t-65-93.5-91.5-61.5-111-22q-80 0-143.5 29t-107 79.5-66.5 119-23 146.5zM351 793v103h44v-103h-44z" glyph-name="Cdotaccent" horiz-adv-x="704" unicode="&#x10a;"/><glyph d="M619 501q-7 45-29 80.5t-55 60.5-73.5 38-85.5 13q-70 0-125-27t-93-72.5-58-106.5-20-130 20-130 58-106.5 93-72.5 125-27q52 0 97.5 21.5t79.5 57 54.5 82 23.5 96.5h44q-6-64-31.5-118t-65-93.5-91.5-61.5-111-22h-1l-33-39 1-1q17 7 38 7 31 0 52.5-16.5t21.5-50.5q0-40-28-59.5t-70-19.5q-29 0-51 7t-41 18l11 24q17-9 36.5-15.5t43.5-6.5q27 0 44 13t17 37q0 19-14.5 31t-37.5 12q-14 0-26-3.5t-23-8.5l-16 13 44 59q-73 6-130.5 37t-97 81-60 115-20.5 140q0 78 23 146.5t66.5 119 107 79.5 143.5 29q63 0 109-16.5t77.5-41 51.5-53.5 30.5-54.5 14.5-44 4-20.5h-44z" glyph-name="Ccedilla" horiz-adv-x="704" unicode="&#xc7;"/><glyph d="M63 714h234q96 0 159.5-30t101.5-80 53.5-114 15.5-132q0-76-19.5-141.5t-60.5-113.5-103.5-75.5-148.5-27.5h-232v714zM299 38q50 0 100.5 15.5t91.5 52 66.5 98 25.5 154.5q0 73-14.5 125t-38 87.5-54 56-63 31.5-65 14.5-58.5 3.5h-183v-638h192zM270 780l-115 140h38l97-115 98 115h38l-116-140h-40z" glyph-name="Dcaron" horiz-adv-x="667" unicode="&#x10e;"/><glyph d="M63 355h-76v33h76v326h234q96 0 159.5-30t101.5-80 53.5-114 15.5-132q0-76-19.5-141.5t-60.5-113.5-103.5-75.5-148.5-27.5h-232v355zM107 388h246v-33h-246v-317h192q50 0 100.5 15.5t91.5 52 66.5 98 25.5 154.5q0 73-14.5 125t-38 87.5-54 56-63 31.5-65 14.5-58.5 3.5h-183v-288z" glyph-name="Dcroat" horiz-adv-x="667" unicode="&#x110;"/><glyph d="M63 355h-76v33h76v326h234q96 0 159.5-30t101.5-80 53.5-114 15.5-132q0-76-19.5-141.5t-60.5-113.5-103.5-75.5-148.5-27.5h-232v355zM107 388h246v-33h-246v-317h192q50 0 100.5 15.5t91.5 52 66.5 98 25.5 154.5q0 73-14.5 125t-38 87.5-54 56-63 31.5-65 14.5-58.5 3.5h-183v-288z" glyph-name="Eth" horiz-adv-x="667" unicode="&#xd0;"/><glyph d="M63 714h480v-38h-436v-286h410v-38h-410v-314h441v-38h-485v714zM298 780l-134 140h51l120-140h-37z" glyph-name="Egrave" horiz-adv-x="560" unicode="&#xc8;"/><glyph d="M63 714h480v-38h-436v-286h410v-38h-410v-314h441v-38h-485v714zM382 920h51l-134-140h-37z" glyph-name="Eacute" horiz-adv-x="560" unicode="&#xc9;"/><glyph d="M63 714h480v-38h-436v-286h410v-38h-410v-314h441v-38h-485v714zM318 920l116-140h-38l-98 115-97-115h-38l115 140h40z" glyph-name="Ecircumflex" horiz-adv-x="560" unicode="&#xca;"/><glyph d="M63 714h480v-38h-436v-286h410v-38h-410v-314h441v-38h-485v714zM278 780l-115 140h38l97-115 98 115h38l-116-140h-40z" glyph-name="Ecaron" horiz-adv-x="560" unicode="&#x11a;"/><glyph d="M63 714h480v-38h-436v-286h410v-38h-410v-314h441v-38h-485v714zM355 793v103h44v-103h-44zM197 793v103h44v-103h-44z" glyph-name="Edieresis" horiz-adv-x="560" unicode="&#xcb;"/><glyph d="M63 714h480v-38h-436v-286h410v-38h-410v-314h441v-38h-485v714zM177 828v33h242v-33h-242z" glyph-name="Emacron" horiz-adv-x="560" unicode="&#x112;"/><glyph d="M63 714h480v-38h-436v-286h410v-38h-410v-314h441v-38h-485v714zM434 910q-3-24-14.5-46t-29-38.5-40-26-47.5-9.5q-57 0-95 31.5t-45 88.5h33q6-26 18-43t26.5-27 30.5-13.5 31-3.5q39 0 65.5 24t33.5 63h33z" glyph-name="Ebreve" horiz-adv-x="560" unicode="&#x114;"/><glyph d="M63 714h480v-38h-436v-286h410v-38h-410v-314h441v-38h-485v714zM277 793v103h44v-103h-44z" glyph-name="Edotaccent" horiz-adv-x="560" unicode="&#x116;"/><glyph d="M63 0v714h480v-38h-436v-286h410v-38h-410v-314h441v-38h-46q-25-22-41-39t-25-31.5-12.5-26.5-3.5-24q0-20 12.5-31t30.5-11q19 0 32 7.5t26 27.5l23-8q-25-60-86-60-37 0-59.5 16.5t-22.5 51.5q0 12 4 25t15 29 31 34.5 52 39.5h-415z" glyph-name="Eogonek" horiz-adv-x="560" unicode="&#x118;"/><glyph d="M37 353q0 76 22.5 144.5t65.5 120.5 105.5 82.5 143.5 30.5q55 0 105-16t89.5-47 66.5-75 36-100h-42q-25 94-90 147t-164 53q-72 0-127-28t-92-75-56-108.5-19-128.5q0-68 18.5-128.5t55-105.5 91.5-71.5 129-26.5q64 0 115 21t86.5 59 53.5 91.5 15 119.5h-263v38h301v-350h-38v152h-2q-13-39-39-70.5t-61.5-53-79-33.5-90.5-12q-81 0-143.5 29t-105.5 79-65 117.5-22 144.5zM392 920l116-140h-38l-98 115-97-115h-38l115 140h40z" glyph-name="Gcircumflex" horiz-adv-x="741" unicode="&#x11c;"/><glyph d="M37 353q0 76 22.5 144.5t65.5 120.5 105.5 82.5 143.5 30.5q55 0 105-16t89.5-47 66.5-75 36-100h-42q-25 94-90 147t-164 53q-72 0-127-28t-92-75-56-108.5-19-128.5q0-68 18.5-128.5t55-105.5 91.5-71.5 129-26.5q64 0 115 21t86.5 59 53.5 91.5 15 119.5h-263v38h301v-350h-38v152h-2q-13-39-39-70.5t-61.5-53-79-33.5-90.5-12q-81 0-143.5 29t-105.5 79-65 117.5-22 144.5zM508 910q-3-24-14.5-46t-29-38.5-40-26-47.5-9.5q-57 0-95 31.5t-45 88.5h33q6-26 18-43t26.5-27 30.5-13.5 31-3.5q39 0 65.5 24t33.5 63h33z" glyph-name="Gbreve" horiz-adv-x="741" unicode="&#x11e;"/><glyph d="M37 353q0 76 22.5 144.5t65.5 120.5 105.5 82.5 143.5 30.5q55 0 105-16t89.5-47 66.5-75 36-100h-42q-25 94-90 147t-164 53q-72 0-127-28t-92-75-56-108.5-19-128.5q0-68 18.5-128.5t55-105.5 91.5-71.5 129-26.5q64 0 115 21t86.5 59 53.5 91.5 15 119.5h-263v38h301v-350h-38v152h-2q-13-39-39-70.5t-61.5-53-79-33.5-90.5-12q-81 0-143.5 29t-105.5 79-65 117.5-22 144.5zM351 793v103h44v-103h-44z" glyph-name="Gdotaccent" horiz-adv-x="741" unicode="&#x120;"/><glyph d="M37 353q0 76 22.5 144.5t65.5 120.5 105.5 82.5 143.5 30.5q55 0 105-16t89.5-47 66.5-75 36-100h-42q-25 94-90 147t-164 53q-72 0-127-28t-92-75-56-108.5-19-128.5q0-68 18.5-128.5t55-105.5 91.5-71.5 129-26.5q64 0 115 21t86.5 59 53.5 91.5 15 119.5h-263v38h301v-350h-38v152h-2q-13-39-39-70.5t-61.5-53-79-33.5-90.5-12q-81 0-143.5 29t-105.5 79-65 117.5-22 144.5zM335-176q13 3 21 10.5t10 22.5h-25v93h57v-80q0-61-63-66v20z" glyph-name="Gcommaaccent" horiz-adv-x="741" unicode="&#x122;"/><glyph d="M63 714h44v-324h456v324h44v-714h-44v352h-456v-352h-44v714zM355 920l116-140h-38l-98 115-97-115h-38l115 140h40z" glyph-name="Hcircumflex" horiz-adv-x="670" unicode="&#x124;"/><glyph d="M107 554h456v160h44v-714h-44v333h-456v-333h-44v714h44v-160zM107 371h456v150h-456v-150z" glyph-name="Hbar" horiz-adv-x="670" unicode="&#x126;"/><glyph d="M63 714h44v-714h-44v714zM75 780l-134 140h51l120-140h-37z" glyph-name="Igrave" horiz-adv-x="170" unicode="&#xcc;"/><glyph d="M63 714h44v-714h-44v714zM179 920h51l-134-140h-37z" glyph-name="Iacute" horiz-adv-x="170" unicode="&#xcd;"/><glyph d="M63 714h44v-714h-44v714zM221 910q-3-24-14.5-46t-29-38.5-40-26-47.5-9.5q-57 0-95 31.5t-45 88.5h33q6-26 18-43t26.5-27 30.5-13.5 31-3.5q39 0 65.5 24t33.5 63h33z" glyph-name="Ibreve" horiz-adv-x="170" unicode="&#x12c;"/><glyph d="M63 714h44v-714h-44v714zM105 920l116-140h-38l-98 115-97-115h-38l115 140h40z" glyph-name="Icircumflex" horiz-adv-x="170" unicode="&#xce;"/><glyph d="M63 714h44v-714h-44v714zM-60 799q1 16 7 32.5t15.5 29 23.5 20.5 32 8q19 0 37-9t35-19.5 33.5-19.5 31.5-9q21 0 32 18.5t13 38.5h29q-2-17-7-33t-14-28.5-22.5-20.5-32.5-8q-17 0-34 9t-34.5 19.5-34.5 19.5-34 9q-20 0-31.5-17t-15.5-40h-29z" glyph-name="Itilde" horiz-adv-x="170" unicode="&#x128;"/><glyph d="M63 714h44v-714h-44v714zM142 793v103h44v-103h-44zM-16 793v103h44v-103h-44z" glyph-name="Idieresis" horiz-adv-x="170" unicode="&#xcf;"/><glyph d="M63 714h44v-714h-44v714zM-36 828v33h242v-33h-242z" glyph-name="Imacron" horiz-adv-x="170" unicode="&#x12a;"/><glyph d="M63 714h44v-714h-44v714zM63 793v103h44v-103h-44z" glyph-name="Idotaccent" horiz-adv-x="170" unicode="&#x130;"/><glyph d="M63 714h44v-714q-21-22-35-39t-22-31.5-11.5-26.5-3.5-24q0-20 11-31t27-11q15 0 27.5 7.5t25.5 27.5l23-8q-13-31-33.5-45.5t-46.5-14.5q-32 0-54 16.5t-22 51.5q0 12 4 25t14 29 27.5 34.5 44.5 39.5h-20v714z" glyph-name="Iogonek" horiz-adv-x="170" unicode="&#x12e;"/><glyph d="M217 21q61 0 93.5 20t46.5 51 15.5 69.5 1.5 75.5v477h44v-492q0-21-.5-47t-6-52.5-17-51.5-33.5-44.5-55.5-31.5-83.5-12q-72 0-113 23t-60.5 59-24 79-4.5 83h44q-3-40 1-77t20-65.5 47.5-46 84.5-17.5zM414 920l116-140h-38l-98 115-97-115h-38l115 140h40z" glyph-name="Jcircumflex" horiz-adv-x="481" unicode="&#x134;"/><glyph d="M63 714h44v-411l449 411h57l-326-297 346-417h-55l-323 387-148-135v-252h-44v714zM295-176q13 3 21 10.5t10 22.5h-25v93h57v-80q0-61-63-66v20z" glyph-name="Kcommaaccent" horiz-adv-x="613" unicode="&#x136;"/><glyph d="M63 714h44v-676h405v-38h-449v714zM189 920h51l-134-140h-37z" glyph-name="Lacute" horiz-adv-x="500" unicode="&#x139;"/><glyph d="M63 714h44v-676h405v-38h-449v714zM279 714h51l-87-140h-29z" glyph-name="Lcaron" horiz-adv-x="500" unicode="&#x13d;"/><glyph d="M63 714h44v-676h405v-38h-449v714zM246-176q13 3 21 10.5t10 22.5h-25v93h57v-80q0-61-63-66v20z" glyph-name="Lcommaaccent" horiz-adv-x="500" unicode="&#x13b;"/><glyph d="M107 714v-383l235 143v-36l-235-142v-258h405v-38h-449v269l-85-53v38l85 51v409h44z" glyph-name="Lslash" horiz-adv-x="500" unicode="&#x141;"/><glyph d="M63 714h44v-676h405v-38h-449v714zM271 329v103h44v-103h-44z" glyph-name="Ldot" horiz-adv-x="500" unicode="&#x13f;"/><glyph d="M63 714h55l451-655h2v655h44v-714h-52l-454 660h-2v-660h-44v714zM428 920h51l-134-140h-37z" glyph-name="Nacute" horiz-adv-x="678" unicode="&#x143;"/><glyph d="M63 714h55l451-655h2v655h44v-714h-52l-454 660h-2v-660h-44v714zM324 780l-115 140h38l97-115 98 115h38l-116-140h-40z" glyph-name="Ncaron" horiz-adv-x="678" unicode="&#x147;"/><glyph d="M63 714h55l451-655h2v655h44v-714h-52l-454 660h-2v-660h-44v714zM199 799q1 16 7 32.5t15.5 29 23.5 20.5 32 8q19 0 37-9t35-19.5 33.5-19.5 31.5-9q21 0 32 18.5t13 38.5h29q-2-17-7-33t-14-28.5-22.5-20.5-32.5-8q-17 0-34 9t-34.5 19.5-34.5 19.5-34 9q-20 0-31.5-17t-15.5-40h-29z" glyph-name="Ntilde" horiz-adv-x="678" unicode="&#xd1;"/><glyph d="M63 714h55l451-655h2v655h44v-714h-52l-454 660h-2v-660h-44v714zM302-176q13 3 21 10.5t10 22.5h-25v93h57v-80q0-61-63-66v20z" glyph-name="Ncommaaccent" horiz-adv-x="678" unicode="&#x145;"/><glyph d="M710 357q0-78-23-146.5t-66.5-119-106.5-79.5-143-29-143.5 29-107 79.5-66.5 119-23 146.5 23 146.5 66.5 119 107 79.5 143.5 29 143-29 106.5-79.5 66.5-119 23-146.5zM75 357q0-69 20-130t58-106.5 93-72.5 125-27 124.5 27 92.5 72.5 58 106.5 20 130-20 130-58 106.5-92.5 72.5-124.5 27-125-27-93-72.5-58-106.5-20-130zM371 780l-134 140h51l120-140h-37z" glyph-name="Ograve" horiz-adv-x="741" unicode="&#xd2;"/><glyph d="M710 357q0-78-23-146.5t-66.5-119-106.5-79.5-143-29-143.5 29-107 79.5-66.5 119-23 146.5 23 146.5 66.5 119 107 79.5 143.5 29 143-29 106.5-79.5 66.5-119 23-146.5zM75 357q0-69 20-130t58-106.5 93-72.5 125-27 124.5 27 92.5 72.5 58 106.5 20 130-20 130-58 106.5-92.5 72.5-124.5 27-125-27-93-72.5-58-106.5-20-130zM455 920h51l-134-140h-37z" glyph-name="Oacute" horiz-adv-x="741" unicode="&#xd3;"/><glyph d="M710 357q0-78-23-146.5t-66.5-119-106.5-79.5-143-29-143.5 29-107 79.5-66.5 119-23 146.5 23 146.5 66.5 119 107 79.5 143.5 29 143-29 106.5-79.5 66.5-119 23-146.5zM75 357q0-69 20-130t58-106.5 93-72.5 125-27 124.5 27 92.5 72.5 58 106.5 20 130-20 130-58 106.5-92.5 72.5-124.5 27-125-27-93-72.5-58-106.5-20-130zM391 920l116-140h-38l-98 115-97-115h-38l115 140h40z" glyph-name="Ocircumflex" horiz-adv-x="741" unicode="&#xd4;"/><glyph d="M710 357q0-78-23-146.5t-66.5-119-106.5-79.5-143-29-143.5 29-107 79.5-66.5 119-23 146.5 23 146.5 66.5 119 107 79.5 143.5 29 143-29 106.5-79.5 66.5-119 23-146.5zM75 357q0-69 20-130t58-106.5 93-72.5 125-27 124.5 27 92.5 72.5 58 106.5 20 130-20 130-58 106.5-92.5 72.5-124.5 27-125-27-93-72.5-58-106.5-20-130zM226 799q1 16 7 32.5t15.5 29 23.5 20.5 32 8q19 0 37-9t35-19.5 33.5-19.5 31.5-9q21 0 32 18.5t13 38.5h29q-2-17-7-33t-14-28.5-22.5-20.5-32.5-8q-17 0-34 9t-34.5 19.5-34.5 19.5-34 9q-20 0-31.5-17t-15.5-40h-29z" glyph-name="Otilde" horiz-adv-x="741" unicode="&#xd5;"/><glyph d="M710 357q0-78-23-146.5t-66.5-119-106.5-79.5-143-29-143.5 29-107 79.5-66.5 119-23 146.5 23 146.5 66.5 119 107 79.5 143.5 29 143-29 106.5-79.5 66.5-119 23-146.5zM75 357q0-69 20-130t58-106.5 93-72.5 125-27 124.5 27 92.5 72.5 58 106.5 20 130-20 130-58 106.5-92.5 72.5-124.5 27-125-27-93-72.5-58-106.5-20-130zM428 793v103h44v-103h-44zM270 793v103h44v-103h-44z" glyph-name="Odieresis" horiz-adv-x="741" unicode="&#xd6;"/><glyph d="M710 357q0-78-23-146.5t-66.5-119-106.5-79.5-143-29-143.5 29-107 79.5-66.5 119-23 146.5 23 146.5 66.5 119 107 79.5 143.5 29 143-29 106.5-79.5 66.5-119 23-146.5zM75 357q0-69 20-130t58-106.5 93-72.5 125-27 124.5 27 92.5 72.5 58 106.5 20 130-20 130-58 106.5-92.5 72.5-124.5 27-125-27-93-72.5-58-106.5-20-130zM250 828v33h242v-33h-242z" glyph-name="Omacron" horiz-adv-x="741" unicode="&#x14c;"/><glyph d="M710 357q0-78-23-146.5t-66.5-119-106.5-79.5-143-29-143.5 29-107 79.5-66.5 119-23 146.5 23 146.5 66.5 119 107 79.5 143.5 29 143-29 106.5-79.5 66.5-119 23-146.5zM75 357q0-69 20-130t58-106.5 93-72.5 125-27 124.5 27 92.5 72.5 58 106.5 20 130-20 130-58 106.5-92.5 72.5-124.5 27-125-27-93-72.5-58-106.5-20-130zM507 910q-3-24-14.5-46t-29-38.5-40-26-47.5-9.5q-57 0-95 31.5t-45 88.5h33q6-26 18-43t26.5-27 30.5-13.5 31-3.5q39 0 65.5 24t33.5 63h33z" glyph-name="Obreve" horiz-adv-x="741" unicode="&#x14e;"/><glyph d="M710 357q0-78-23-146.5t-66.5-119-106.5-79.5-143-29-143.5 29-107 79.5-66.5 119-23 146.5 23 146.5 66.5 119 107 79.5 143.5 29 143-29 106.5-79.5 66.5-119 23-146.5zM75 357q0-69 20-130t58-106.5 93-72.5 125-27 124.5 27 92.5 72.5 58 106.5 20 130-20 130-58 106.5-92.5 72.5-124.5 27-125-27-93-72.5-58-106.5-20-130zM423 780l120 140h51l-134-140h-37zM265 780l120 140h51l-134-140h-37z" glyph-name="Ohungarumlaut" horiz-adv-x="741" unicode="&#x150;"/><glyph d="M113 102q-40 51-61 115.5t-21 139.5q0 78 23 146.5t66.5 119 107 79.5 143.5 29q72 0 130.5-24t101.5-67l68 74 26-24-70-76q42-51 62.5-116t20.5-141q0-78-23-146.5t-66.5-119-106.5-79.5-143-29q-75 0-133.5 24t-101.5 69l-76-84-26 24zM575 609q-38 39-89 61.5t-115 22.5q-70 0-125-27t-93-72.5-58-106.5-20-130q0-64 17-121t51-102zM165 108q38-42 89-64.5t117-22.5q70 0 124.5 27t92.5 72.5 58 106.5 20 130q0 66-17.5 123t-50.5 102z" glyph-name="Oslash" horiz-adv-x="741" unicode="&#xd8;"/><glyph d="M113 102q-40 51-61 115.5t-21 139.5q0 78 23 146.5t66.5 119 107 79.5 143.5 29q72 0 130.5-24t101.5-67l68 74 26-24-70-76q42-51 62.5-116t20.5-141q0-78-23-146.5t-66.5-119-106.5-79.5-143-29q-75 0-133.5 24t-101.5 69l-76-84-26 24zM575 609q-38 39-89 61.5t-115 22.5q-70 0-125-27t-93-72.5-58-106.5-20-130q0-64 17-121t51-102zM165 108q38-42 89-64.5t117-22.5q70 0 124.5 27t92.5 72.5 58 106.5 20 130q0 66-17.5 123t-50.5 102zM455 920h51l-134-140h-37z" glyph-name="Oslashacute" horiz-adv-x="741" unicode="&#x1fe;"/><glyph d="M617 390h378v-38h-378v-314h424v-38h-468v66h-2q-25-32-78.5-57.5t-132.5-25.5q-80 0-141 28.5t-103 79-63.5 118-21.5 145.5q0 76 22 144.5t65 120 106 82 144 30.5q56 0 111.5-21t93.5-62v66h466v-38h-422v-286zM573 578q0 10-6 20.5t-14.5 20-18.5 17.5-18 13q-65 44-144 44-73 0-128.5-27.5t-93-74-56.5-108-19-129.5 17.5-128.5 53-106 89.5-72 128-26.5q32 0 64.5 5.5t61.5 21.5q10 5 24.5 13.5t27.5 19.5 22.5 23 9.5 23v451z" glyph-name="OE" horiz-adv-x="1056" unicode="&#x152;"/><glyph d="M63 714h298q47 0 88-9.5t72-31 48.5-56.5 17.5-87q0-72-40.5-121.5t-112.5-61.5v-2q49-6 77.5-26t42.5-49 18-64 4-70v-41t2-37.5 6.5-32.5 12.5-25h-49q-14 25-15.5 58.5t-1.5 69.5-3 71.5-19 63.5-50.5 45-97.5 17h-254v-325h-44v714zM361 363q39 0 72.5 9.5t57.5 29.5 38 51 14 74q0 40-15 68.5t-40 46.5-58 26-69 8h-254v-313h254zM381 920h51l-134-140h-37z" glyph-name="Racute" horiz-adv-x="630" unicode="&#x154;"/><glyph d="M63 714h298q47 0 88-9.5t72-31 48.5-56.5 17.5-87q0-72-40.5-121.5t-112.5-61.5v-2q49-6 77.5-26t42.5-49 18-64 4-70v-41t2-37.5 6.5-32.5 12.5-25h-49q-14 25-15.5 58.5t-1.5 69.5-3 71.5-19 63.5-50.5 45-97.5 17h-254v-325h-44v714zM361 363q39 0 72.5 9.5t57.5 29.5 38 51 14 74q0 40-15 68.5t-40 46.5-58 26-69 8h-254v-313h254zM277 780l-115 140h38l97-115 98 115h38l-116-140h-40z" glyph-name="Rcaron" horiz-adv-x="630" unicode="&#x158;"/><glyph d="M63 714h298q47 0 88-9.5t72-31 48.5-56.5 17.5-87q0-72-40.5-121.5t-112.5-61.5v-2q49-6 77.5-26t42.5-49 18-64 4-70v-41t2-37.5 6.5-32.5 12.5-25h-49q-14 25-15.5 58.5t-1.5 69.5-3 71.5-19 63.5-50.5 45-97.5 17h-254v-325h-44v714zM361 363q39 0 72.5 9.5t57.5 29.5 38 51 14 74q0 40-15 68.5t-40 46.5-58 26-69 8h-254v-313h254zM286-176q13 3 21 10.5t10 22.5h-25v93h57v-80q0-61-63-66v20z" glyph-name="Rcommaaccent" horiz-adv-x="630" unicode="&#x156;"/><glyph d="M529 510q-2 46-19.5 80t-47.5 57-71.5 34.5-90.5 11.5q-30 0-64.5-7t-64-24.5-48.5-47-19-73.5q0-43 21-70t55-43.5 78-26.5 89-19q46-9 89.5-21.5t78-34 55.5-56 21-86.5q0-56-24-94t-60.5-62-81-34.5-85.5-10.5q-63 0-118 13.5t-96 44-64.5 78.5-22.5 117h44q-3-59 17-99.5t55.5-66.5 83.5-37.5 101-11.5q32 0 68.5 8t67 27 51 50 20.5 78q0 45-21 73.5t-55.5 46-78 28-89.5 19.5q-45 9-89 21t-78 32.5-55 53-21 83.5 21.5 87.5 56 59 77.5 33 85 10.5q56 0 104.5-12.5t85-39 58.5-68.5 25-101h-44zM403 920h51l-134-140h-37z" glyph-name="Sacute" horiz-adv-x="630" unicode="&#x15a;"/><glyph d="M529 510q-2 46-19.5 80t-47.5 57-71.5 34.5-90.5 11.5q-30 0-64.5-7t-64-24.5-48.5-47-19-73.5q0-43 21-70t55-43.5 78-26.5 89-19q46-9 89.5-21.5t78-34 55.5-56 21-86.5q0-56-24-94t-60.5-62-81-34.5-85.5-10.5q-63 0-118 13.5t-96 44-64.5 78.5-22.5 117h44q-3-59 17-99.5t55.5-66.5 83.5-37.5 101-11.5q32 0 68.5 8t67 27 51 50 20.5 78q0 45-21 73.5t-55.5 46-78 28-89.5 19.5q-45 9-89 21t-78 32.5-55 53-21 83.5 21.5 87.5 56 59 77.5 33 85 10.5q56 0 104.5-12.5t85-39 58.5-68.5 25-101h-44zM339 920l116-140h-38l-98 115-97-115h-38l115 140h40z" glyph-name="Scircumflex" horiz-adv-x="630" unicode="&#x15c;"/><glyph d="M529 510q-2 46-19.5 80t-47.5 57-71.5 34.5-90.5 11.5q-30 0-64.5-7t-64-24.5-48.5-47-19-73.5q0-43 21-70t55-43.5 78-26.5 89-19q46-9 89.5-21.5t78-34 55.5-56 21-86.5q0-56-24-94t-60.5-62-81-34.5-85.5-10.5q-63 0-118 13.5t-96 44-64.5 78.5-22.5 117h44q-3-59 17-99.5t55.5-66.5 83.5-37.5 101-11.5q32 0 68.5 8t67 27 51 50 20.5 78q0 45-21 73.5t-55.5 46-78 28-89.5 19.5q-45 9-89 21t-78 32.5-55 53-21 83.5 21.5 87.5 56 59 77.5 33 85 10.5q56 0 104.5-12.5t85-39 58.5-68.5 25-101h-44zM299 780l-115 140h38l97-115 98 115h38l-116-140h-40z" glyph-name="Scaron" horiz-adv-x="630" unicode="&#x160;"/><glyph d="M529 510q-2 46-19.5 80t-47.5 57-71.5 34.5-90.5 11.5q-30 0-64.5-7t-64-24.5-48.5-47-19-73.5q0-43 21-70t55-43.5 78-26.5 89-19q46-9 89.5-21.5t78-34 55.5-56 21-86.5q0-56-24-94t-60.5-62-81-34.5-85.5-10.5h-11t-11 1l-33-40 1-1q17 7 38 7 31 0 52.5-16.5t21.5-50.5q0-40-28-59.5t-70-19.5q-29 0-51 7t-41 18l11 24q17-9 36.5-15.5t43.5-6.5q27 0 44 13t17 37q0 19-14.5 31t-37.5 12q-14 0-26-3.5t-23-8.5l-16 13 45 61q-54 5-100 21.5t-79.5 46.5-52 75-17.5 107h44q-3-59 17-99.5t55.5-66.5 83.5-37.5 101-11.5q32 0 68.5 8t67 27 51 50 20.5 78q0 45-21 73.5t-55.5 46-78 28-89.5 19.5q-45 9-89 21t-78 32.5-55 53-21 83.5 21.5 87.5 56 59 77.5 33 85 10.5q56 0 104.5-12.5t85-39 58.5-68.5 25-101h-44z" glyph-name="Scedilla" horiz-adv-x="630" unicode="&#x15e;"/><glyph d="M529 510q-2 46-19.5 80t-47.5 57-71.5 34.5-90.5 11.5q-30 0-64.5-7t-64-24.5-48.5-47-19-73.5q0-43 21-70t55-43.5 78-26.5 89-19q46-9 89.5-21.5t78-34 55.5-56 21-86.5q0-56-24-94t-60.5-62-81-34.5-85.5-10.5q-63 0-118 13.5t-96 44-64.5 78.5-22.5 117h44q-3-59 17-99.5t55.5-66.5 83.5-37.5 101-11.5q32 0 68.5 8t67 27 51 50 20.5 78q0 45-21 73.5t-55.5 46-78 28-89.5 19.5q-45 9-89 21t-78 32.5-55 53-21 83.5 21.5 87.5 56 59 77.5 33 85 10.5q56 0 104.5-12.5t85-39 58.5-68.5 25-101h-44zM286-176q13 3 21 10.5t10 22.5h-25v93h57v-80q0-61-63-66v20z" glyph-name="Scommaaccent" horiz-adv-x="630" unicode="&#x218;"/><glyph d="M-14 676v38h547v-38h-252v-676h-44v676h-251zM240 780l-115 140h38l97-115 98 115h38l-116-140h-40z" glyph-name="Tcaron" unicode="&#x164;"/><glyph d="M-14 676v38h547v-38h-252v-676h-44v676h-251zM276 0l-48-56 1-1q17 7 38 7 31 0 52.5-16.5t21.5-50.5q0-40-28-59.5t-70-19.5q-29 0-51 7t-41 18l11 24q17-9 36.5-15.5t43.5-6.5q27 0 44 13t17 37q0 19-14.5 31t-37.5 12q-14 0-26-3.5t-23-8.5l-16 13 56 75h34z" glyph-name="Tcommaaccent" unicode="&#x162;"/><glyph d="M-14 676v38h547v-38h-252v-676h-44v676h-251zM224-176q13 3 21 10.5t10 22.5h-25v93h57v-80q0-61-63-66v20z" glyph-name="uni021A" unicode="&#x21a;"/><glyph d="M-14 676v38h547v-38h-252v-186h169v-33h-169v-457h-44v457h-169v33h169v186h-251z" glyph-name="Tbar" unicode="&#x166;"/><glyph d="M63 714h44v-120h260q30 0 66.5-7t68-28.5 52.5-60.5 21-103q0-96-58-146.5t-166-50.5h-244v-198h-44v714zM107 236h251q48 0 81.5 14.5t53.5 37.5 29 51.5 9 56.5q0 20-6 47.5t-24 52.5-50.5 42.5-86.5 17.5h-257v-320z" glyph-name="Thorn" horiz-adv-x="593" unicode="&#xde;"/><glyph d="M107 714v-428q0-21 2-49t10-57.5 22.5-58 39.5-51 61.5-36 88.5-13.5q66 0 110.5 18.5t72 53 39.5 83.5 12 110v428h44v-428q0-64-13.5-119t-45.5-96-85.5-64.5-133.5-23.5q-63 0-108 16t-74.5 41.5-46.5 58.5-26 66.5-11 65-2 55.5v428h44zM336 780l-134 140h51l120-140h-37z" glyph-name="Ugrave" horiz-adv-x="672" unicode="&#xd9;"/><glyph d="M107 714v-428q0-21 2-49t10-57.5 22.5-58 39.5-51 61.5-36 88.5-13.5q66 0 110.5 18.5t72 53 39.5 83.5 12 110v428h44v-428q0-64-13.5-119t-45.5-96-85.5-64.5-133.5-23.5q-63 0-108 16t-74.5 41.5-46.5 58.5-26 66.5-11 65-2 55.5v428h44zM420 920h51l-134-140h-37z" glyph-name="Uacute" horiz-adv-x="672" unicode="&#xda;"/><glyph d="M107 714v-428q0-21 2-49t10-57.5 22.5-58 39.5-51 61.5-36 88.5-13.5q66 0 110.5 18.5t72 53 39.5 83.5 12 110v428h44v-428q0-64-13.5-119t-45.5-96-85.5-64.5-133.5-23.5q-63 0-108 16t-74.5 41.5-46.5 58.5-26 66.5-11 65-2 55.5v428h44zM356 920l116-140h-38l-98 115-97-115h-38l115 140h40z" glyph-name="Ucircumflex" horiz-adv-x="672" unicode="&#xdb;"/><glyph d="M107 714v-428q0-21 2-49t10-57.5 22.5-58 39.5-51 61.5-36 88.5-13.5q66 0 110.5 18.5t72 53 39.5 83.5 12 110v428h44v-428q0-64-13.5-119t-45.5-96-85.5-64.5-133.5-23.5q-63 0-108 16t-74.5 41.5-46.5 58.5-26 66.5-11 65-2 55.5v428h44zM191 799q1 16 7 32.5t15.5 29 23.5 20.5 32 8q19 0 37-9t35-19.5 33.5-19.5 31.5-9q21 0 32 18.5t13 38.5h29q-2-17-7-33t-14-28.5-22.5-20.5-32.5-8q-17 0-34 9t-34.5 19.5-34.5 19.5-34 9q-20 0-31.5-17t-15.5-40h-29z" glyph-name="Utilde" horiz-adv-x="672" unicode="&#x168;"/><glyph d="M107 714v-428q0-21 2-49t10-57.5 22.5-58 39.5-51 61.5-36 88.5-13.5q66 0 110.5 18.5t72 53 39.5 83.5 12 110v428h44v-428q0-64-13.5-119t-45.5-96-85.5-64.5-133.5-23.5q-63 0-108 16t-74.5 41.5-46.5 58.5-26 66.5-11 65-2 55.5v428h44zM393 793v103h44v-103h-44zM235 793v103h44v-103h-44z" glyph-name="Udieresis" horiz-adv-x="672" unicode="&#xdc;"/><glyph d="M107 714v-428q0-21 2-49t10-57.5 22.5-58 39.5-51 61.5-36 88.5-13.5q66 0 110.5 18.5t72 53 39.5 83.5 12 110v428h44v-428q0-64-13.5-119t-45.5-96-85.5-64.5-133.5-23.5q-63 0-108 16t-74.5 41.5-46.5 58.5-26 66.5-11 65-2 55.5v428h44zM215 828v33h242v-33h-242z" glyph-name="Umacron" horiz-adv-x="672" unicode="&#x16a;"/><glyph d="M107 714v-428q0-21 2-49t10-57.5 22.5-58 39.5-51 61.5-36 88.5-13.5q66 0 110.5 18.5t72 53 39.5 83.5 12 110v428h44v-428q0-64-13.5-119t-45.5-96-85.5-64.5-133.5-23.5q-63 0-108 16t-74.5 41.5-46.5 58.5-26 66.5-11 65-2 55.5v428h44zM472 910q-3-24-14.5-46t-29-38.5-40-26-47.5-9.5q-57 0-95 31.5t-45 88.5h33q6-26 18-43t26.5-27 30.5-13.5 31-3.5q39 0 65.5 24t33.5 63h33z" glyph-name="Ubreve" horiz-adv-x="672" unicode="&#x16c;"/><glyph d="M107 714v-428q0-21 2-49t10-57.5 22.5-58 39.5-51 61.5-36 88.5-13.5q66 0 110.5 18.5t72 53 39.5 83.5 12 110v428h44v-428q0-64-13.5-119t-45.5-96-85.5-64.5-133.5-23.5q-63 0-108 16t-74.5 41.5-46.5 58.5-26 66.5-11 65-2 55.5v428h44zM237 850q0 42 28.5 70.5t70.5 28.5 70.5-28.5 28.5-70.5-28.5-70.5-70.5-28.5-70.5 28.5-28.5 70.5zM264 850q0-30 21-51t51-21 51 21 21 51-21 51-51 21-51-21-21-51z" glyph-name="Uring" horiz-adv-x="672" unicode="&#x16e;"/><glyph d="M107 714v-428q0-21 2-49t10-57.5 22.5-58 39.5-51 61.5-36 88.5-13.5q66 0 110.5 18.5t72 53 39.5 83.5 12 110v428h44v-428q0-64-13.5-119t-45.5-96-85.5-64.5-133.5-23.5q-63 0-108 16t-74.5 41.5-46.5 58.5-26 66.5-11 65-2 55.5v428h44zM388 780l120 140h51l-134-140h-37zM230 780l120 140h51l-134-140h-37z" glyph-name="Uhungarumlaut" horiz-adv-x="672" unicode="&#x170;"/><glyph d="M107 714v-428q0-21 2-49t10-57.5 22.5-58 39.5-51 61.5-36 88.5-13.5q66 0 110.5 18.5t72 53 39.5 83.5 12 110v428h44v-428q0-61-12-114t-41-93.5-76.5-65.5-118.5-29q-38-36-51-60t-13-45q0-20 12.5-31t30.5-11q19 0 32 7.5t26 27.5l23-8q-25-60-86-60-37 0-59.5 16.5t-22.5 51.5q0 21 15 48t63 63q-63 0-108 16t-74.5 41.5-46.5 58.5-26 66.5-11 65-2 55.5v428h44z" glyph-name="Uogonek" horiz-adv-x="672" unicode="&#x172;"/><glyph d="M-6 714h45l186-667h2l189 667h55l192-667h2l183 667h47l-205-714h-50l-196 676h-2l-193-676h-49zM527 920h51l-134-140h-37z" glyph-name="Wacute" horiz-adv-x="889" unicode="&#x1e82;"/><glyph d="M-6 714h45l186-667h2l189 667h55l192-667h2l183 667h47l-205-714h-50l-196 676h-2l-193-676h-49zM463 920l116-140h-38l-98 115-97-115h-38l115 140h40z" glyph-name="Wcircumflex" horiz-adv-x="889" unicode="&#x174;"/><glyph d="M-6 714h45l186-667h2l189 667h55l192-667h2l183 667h47l-205-714h-50l-196 676h-2l-193-676h-49zM500 793v103h44v-103h-44zM342 793v103h44v-103h-44z" glyph-name="Wdieresis" horiz-adv-x="889" unicode="&#x1e84;"/><glyph d="M-6 714h45l186-667h2l189 667h55l192-667h2l183 667h47l-205-714h-50l-196 676h-2l-193-676h-49zM443 780l-134 140h51l120-140h-37z" glyph-name="Wgrave" horiz-adv-x="889" unicode="&#x1e80;"/><glyph d="M546 714h49l-287-415v-299h-44v299l-285 415h50l258-378zM372 920h51l-134-140h-37z" glyph-name="Yacute" horiz-adv-x="574" unicode="&#xdd;"/><glyph d="M546 714h49l-287-415v-299h-44v299l-285 415h50l258-378zM308 920l116-140h-38l-98 115-97-115h-38l115 140h40z" glyph-name="Ycircumflex" horiz-adv-x="574" unicode="&#x176;"/><glyph d="M546 714h49l-287-415v-299h-44v299l-285 415h50l258-378zM345 793v103h44v-103h-44zM187 793v103h44v-103h-44z" glyph-name="Ydieresis" horiz-adv-x="574" unicode="&#x178;"/><glyph d="M546 714h49l-287-415v-299h-44v299l-285 415h50l258-378zM288 780l-134 140h51l120-140h-37z" glyph-name="Ygrave" horiz-adv-x="574" unicode="&#x1ef2;"/><glyph d="M28 714h501v-38l-484-638h493v-38h-539v38l482 638h-453v38zM357 920h51l-134-140h-37z" glyph-name="Zacute" horiz-adv-x="537" unicode="&#x179;"/><glyph d="M28 714h501v-38l-484-638h493v-38h-539v38l482 638h-453v38zM253 780l-115 140h38l97-115 98 115h38l-116-140h-40z" glyph-name="Zcaron" horiz-adv-x="537" unicode="&#x17d;"/><glyph d="M28 714h501v-38l-484-638h493v-38h-539v38l482 638h-453v38zM251 793v103h44v-103h-44z" glyph-name="Zdotaccent" horiz-adv-x="537" unicode="&#x17b;"/><glyph d="M397 102h-2q-9-23-26-43.5t-41.5-36.5-55.5-25-68-9q-82 0-127 35.5t-45 109.5q0 45 18 73.5t45.5 45 61 23.5 64.5 10l59 5q41 3 64.5 9.5t35.5 18 15 29.5 3 45q0 21-8 39t-25 32-44 22-66 8q-69 0-111.5-34t-46.5-103h-38q4 85 54.5 127.5t143.5 42.5 135.5-36.5 42.5-95.5v-299q0-11 .5-22t3.5-20 10-14.5 20-5.5q10 0 28 3v-32q-15-4-31-4-23 0-36.5 6t-20.5 16-9.5 23.5-2.5 29.5v27zM397 292q-14-17-42.5-23t-63.5-9l-64-6q-28-3-56-8.5t-50.5-18.5-36.5-35.5-14-58.5q0-57 36-84.5t99-27.5q65 0 103 23.5t58 54 25.5 59 5.5 38.5v96zM257 590l-134 140h51l120-140h-37z" glyph-name="agrave" horiz-adv-x="500" unicode="&#xe0;"/><glyph d="M397 102h-2q-9-23-26-43.5t-41.5-36.5-55.5-25-68-9q-82 0-127 35.5t-45 109.5q0 45 18 73.5t45.5 45 61 23.5 64.5 10l59 5q41 3 64.5 9.5t35.5 18 15 29.5 3 45q0 21-8 39t-25 32-44 22-66 8q-69 0-111.5-34t-46.5-103h-38q4 85 54.5 127.5t143.5 42.5 135.5-36.5 42.5-95.5v-299q0-11 .5-22t3.5-20 10-14.5 20-5.5q10 0 28 3v-32q-15-4-31-4-23 0-36.5 6t-20.5 16-9.5 23.5-2.5 29.5v27zM397 292q-14-17-42.5-23t-63.5-9l-64-6q-28-3-56-8.5t-50.5-18.5-36.5-35.5-14-58.5q0-57 36-84.5t99-27.5q65 0 103 23.5t58 54 25.5 59 5.5 38.5v96zM341 730h51l-134-140h-37z" glyph-name="aacute" horiz-adv-x="500" unicode="&#xe1;"/><glyph d="M397 102h-2q-9-23-26-43.5t-41.5-36.5-55.5-25-68-9q-82 0-127 35.5t-45 109.5q0 45 18 73.5t45.5 45 61 23.5 64.5 10l59 5q41 3 64.5 9.5t35.5 18 15 29.5 3 45q0 21-8 39t-25 32-44 22-66 8q-69 0-111.5-34t-46.5-103h-38q4 85 54.5 127.5t143.5 42.5 135.5-36.5 42.5-95.5v-299q0-11 .5-22t3.5-20 10-14.5 20-5.5q10 0 28 3v-32q-15-4-31-4-23 0-36.5 6t-20.5 16-9.5 23.5-2.5 29.5v27zM397 292q-14-17-42.5-23t-63.5-9l-64-6q-28-3-56-8.5t-50.5-18.5-36.5-35.5-14-58.5q0-57 36-84.5t99-27.5q65 0 103 23.5t58 54 25.5 59 5.5 38.5v96zM277 730l116-140h-38l-98 115-97-115h-38l115 140h40z" glyph-name="acircumflex" horiz-adv-x="500" unicode="&#xe2;"/><glyph d="M397 102h-2q-9-23-26-43.5t-41.5-36.5-55.5-25-68-9q-82 0-127 35.5t-45 109.5q0 45 18 73.5t45.5 45 61 23.5 64.5 10l59 5q41 3 64.5 9.5t35.5 18 15 29.5 3 45q0 21-8 39t-25 32-44 22-66 8q-69 0-111.5-34t-46.5-103h-38q4 85 54.5 127.5t143.5 42.5 135.5-36.5 42.5-95.5v-299q0-11 .5-22t3.5-20 10-14.5 20-5.5q10 0 28 3v-32q-15-4-31-4-23 0-36.5 6t-20.5 16-9.5 23.5-2.5 29.5v27zM397 292q-14-17-42.5-23t-63.5-9l-64-6q-28-3-56-8.5t-50.5-18.5-36.5-35.5-14-58.5q0-57 36-84.5t99-27.5q65 0 103 23.5t58 54 25.5 59 5.5 38.5v96zM112 609q1 16 7 32.5t15.5 29 23.5 20.5 32 8q19 0 37-9t35-19.5 33.5-19.5 31.5-9q21 0 32 18.5t13 38.5h29q-2-17-7-33t-14-28.5-22.5-20.5-32.5-8q-17 0-34 9t-34.5 19.5-34.5 19.5-34 9q-20 0-31.5-17t-15.5-40h-29z" glyph-name="atilde" horiz-adv-x="500" unicode="&#xe3;"/><glyph d="M397 102h-2q-9-23-26-43.5t-41.5-36.5-55.5-25-68-9q-82 0-127 35.5t-45 109.5q0 45 18 73.5t45.5 45 61 23.5 64.5 10l59 5q41 3 64.5 9.5t35.5 18 15 29.5 3 45q0 21-8 39t-25 32-44 22-66 8q-69 0-111.5-34t-46.5-103h-38q4 85 54.5 127.5t143.5 42.5 135.5-36.5 42.5-95.5v-299q0-11 .5-22t3.5-20 10-14.5 20-5.5q10 0 28 3v-32q-15-4-31-4-23 0-36.5 6t-20.5 16-9.5 23.5-2.5 29.5v27zM397 292q-14-17-42.5-23t-63.5-9l-64-6q-28-3-56-8.5t-50.5-18.5-36.5-35.5-14-58.5q0-57 36-84.5t99-27.5q65 0 103 23.5t58 54 25.5 59 5.5 38.5v96zM314 603v103h44v-103h-44zM156 603v103h44v-103h-44z" glyph-name="adieresis" horiz-adv-x="500" unicode="&#xe4;"/><glyph d="M397 102h-2q-9-23-26-43.5t-41.5-36.5-55.5-25-68-9q-82 0-127 35.5t-45 109.5q0 45 18 73.5t45.5 45 61 23.5 64.5 10l59 5q41 3 64.5 9.5t35.5 18 15 29.5 3 45q0 21-8 39t-25 32-44 22-66 8q-69 0-111.5-34t-46.5-103h-38q4 85 54.5 127.5t143.5 42.5 135.5-36.5 42.5-95.5v-299q0-11 .5-22t3.5-20 10-14.5 20-5.5q10 0 28 3v-32q-15-4-31-4-23 0-36.5 6t-20.5 16-9.5 23.5-2.5 29.5v27zM397 292q-14-17-42.5-23t-63.5-9l-64-6q-28-3-56-8.5t-50.5-18.5-36.5-35.5-14-58.5q0-57 36-84.5t99-27.5q65 0 103 23.5t58 54 25.5 59 5.5 38.5v96zM136 638v33h242v-33h-242z" glyph-name="amacron" horiz-adv-x="500" unicode="&#x101;"/><glyph d="M397 102h-2q-9-23-26-43.5t-41.5-36.5-55.5-25-68-9q-82 0-127 35.5t-45 109.5q0 45 18 73.5t45.5 45 61 23.5 64.5 10l59 5q41 3 64.5 9.5t35.5 18 15 29.5 3 45q0 21-8 39t-25 32-44 22-66 8q-69 0-111.5-34t-46.5-103h-38q4 85 54.5 127.5t143.5 42.5 135.5-36.5 42.5-95.5v-299q0-11 .5-22t3.5-20 10-14.5 20-5.5q10 0 28 3v-32q-15-4-31-4-23 0-36.5 6t-20.5 16-9.5 23.5-2.5 29.5v27zM397 292q-14-17-42.5-23t-63.5-9l-64-6q-28-3-56-8.5t-50.5-18.5-36.5-35.5-14-58.5q0-57 36-84.5t99-27.5q65 0 103 23.5t58 54 25.5 59 5.5 38.5v96zM393 720q-3-24-14.5-46t-29-38.5-40-26-47.5-9.5q-57 0-95 31.5t-45 88.5h33q6-26 18-43t26.5-27 30.5-13.5 31-3.5q39 0 65.5 24t33.5 63h33z" glyph-name="abreve" horiz-adv-x="500" unicode="&#x103;"/><glyph d="M397 102h-2q-9-23-26-43.5t-41.5-36.5-55.5-25-68-9q-82 0-127 35.5t-45 109.5q0 45 18 73.5t45.5 45 61 23.5 64.5 10l59 5q41 3 64.5 9.5t35.5 18 15 29.5 3 45q0 21-8 39t-25 32-44 22-66 8q-69 0-111.5-34t-46.5-103h-38q4 85 54.5 127.5t143.5 42.5 135.5-36.5 42.5-95.5v-299q0-11 .5-22t3.5-20 10-14.5 20-5.5q10 0 28 3v-32q-15-4-31-4-23 0-36.5 6t-20.5 16-9.5 23.5-2.5 29.5v27zM397 292q-14-17-42.5-23t-63.5-9l-64-6q-28-3-56-8.5t-50.5-18.5-36.5-35.5-14-58.5q0-57 36-84.5t99-27.5q65 0 103 23.5t58 54 25.5 59 5.5 38.5v96zM158 670q0 42 28.5 70.5t70.5 28.5 70.5-28.5 28.5-70.5-28.5-70.5-70.5-28.5-70.5 28.5-28.5 70.5zM185 670q0-30 21-51t51-21 51 21 21 51-21 51-51 21-51-21-21-51z" glyph-name="aring" horiz-adv-x="500" unicode="&#xe5;"/><glyph d="M397 102h-2q-9-23-26-43.5t-41.5-36.5-55.5-25-68-9q-82 0-127 35.5t-45 109.5q0 45 18 73.5t45.5 45 61 23.5 64.5 10l59 5q41 3 64.5 9.5t35.5 18 15 29.5 3 45q0 21-8 39t-25 32-44 22-66 8q-69 0-111.5-34t-46.5-103h-38q4 85 54.5 127.5t143.5 42.5 135.5-36.5 42.5-95.5v-299q0-11 .5-22t3.5-20 10-14.5 20-5.5q10 0 28 3v-32q-15-4-31-4-23 0-36.5 6t-20.5 16-9.5 23.5-2.5 29.5v27zM397 292q-14-17-42.5-23t-63.5-9l-64-6q-28-3-56-8.5t-50.5-18.5-36.5-35.5-14-58.5q0-57 36-84.5t99-27.5q65 0 103 23.5t58 54 25.5 59 5.5 38.5v96zM158 658q0 42 28.5 70.5t70.5 28.5 70.5-28.5 28.5-70.5-28.5-70.5-70.5-28.5-70.5 28.5-28.5 70.5zM185 658q0-30 21-51t51-21 51 21 21 51-21 51-51 21-51-21-21-51zM343 920h51l-134-140h-37z" glyph-name="aringacute" horiz-adv-x="500" unicode="&#x1fb;"/><glyph d="M397 102h-2q-9-23-26-43.5t-41.5-36.5-55.5-25-68-9q-82 0-127 35.5t-45 109.5q0 45 18 73.5t45.5 45 61 23.5 64.5 10l59 5q41 3 64.5 9.5t35.5 18 15 29.5 3 45q0 21-8 39t-25 32-44 22-66 8q-69 0-111.5-34t-46.5-103h-38q4 85 54.5 127.5t143.5 42.5 135.5-36.5 42.5-95.5v-299q0-11 .5-22t3.5-20 10-14.5 20-5.5q10 0 28 3v-32q-15-4-31-4h-10q-25-22-41-39t-25-31.5-12.5-26.5-3.5-24q0-20 12.5-31t30.5-11q19 0 32 7.5t26 27.5l23-8q-25-60-86-60-37 0-59.5 16.5t-22.5 51.5q0 12 4 25.5t15.5 29.5 32.5 35 55 41q-26 8-33 27t-7 45v27zM397 292q-14-17-42.5-23t-63.5-9l-64-6q-28-3-56-8.5t-50.5-18.5-36.5-35.5-14-58.5q0-57 36-84.5t99-27.5q65 0 103 23.5t58 54 25.5 59 5.5 38.5v96z" glyph-name="aogonek" horiz-adv-x="500" unicode="&#x105;"/><glyph d="M445 252q-3-47 7.5-89t34-73.5 60-50 86.5-18.5q73 0 120.5 38.5t58.5 111.5h38q-14-87-71.5-135t-145.5-48q-78 0-133 37t-73 112h-2q-25-69-79.5-109t-129.5-40q-36 0-69.5 8t-59 25.5-40.5 44.5-15 65q0 46 18 75.5t46 46 60.5 23 62.5 7.5q33 4 67.5 4.5t62 7.5 44 24 13.5 54q0 63-37 91.5t-113 28.5q-69 0-114-33t-50-107h-38q6 89 61 131t141 42q34 0 65.5-6t56-21 40-40 18.5-64h2q24 67 74.5 99t120.5 32q59 0 103-22.5t72.5-60 40.5-87 7-104.5h-411zM818 285q1 42-11.5 79.5t-36.5 66-59 45.5-78 17q-47 0-81-17t-57-45.5-35.5-66-15.5-79.5h374zM406 289h-2q-6-11-24.5-17t-44-9-57-5-63.5-5q-29-2-55.5-9t-46.5-21-31.5-36.5-11.5-55.5q0-30 12.5-50.5t33.5-34 47-19.5 53-6q37 0 71 14t60 38 42 57 17 71v88z" glyph-name="ae" horiz-adv-x="889" unicode="&#xe6;"/><glyph d="M445 252q-3-47 7.5-89t34-73.5 60-50 86.5-18.5q73 0 120.5 38.5t58.5 111.5h38q-14-87-71.5-135t-145.5-48q-78 0-133 37t-73 112h-2q-25-69-79.5-109t-129.5-40q-36 0-69.5 8t-59 25.5-40.5 44.5-15 65q0 46 18 75.5t46 46 60.5 23 62.5 7.5q33 4 67.5 4.5t62 7.5 44 24 13.5 54q0 63-37 91.5t-113 28.5q-69 0-114-33t-50-107h-38q6 89 61 131t141 42q34 0 65.5-6t56-21 40-40 18.5-64h2q24 67 74.5 99t120.5 32q59 0 103-22.5t72.5-60 40.5-87 7-104.5h-411zM818 285q1 42-11.5 79.5t-36.5 66-59 45.5-78 17q-47 0-81-17t-57-45.5-35.5-66-15.5-79.5h374zM406 289h-2q-6-11-24.5-17t-44-9-57-5-63.5-5q-29-2-55.5-9t-46.5-21-31.5-36.5-11.5-55.5q0-30 12.5-50.5t33.5-34 47-19.5 53-6q37 0 71 14t60 38 42 57 17 71v88zM557 730h51l-134-140h-37z" glyph-name="aeacute" horiz-adv-x="889" unicode="&#x1fd;"/><glyph d="M443 355q-3 34-17.5 60t-37.5 43-53.5 26-65.5 9q-48 0-85-19.5t-62-52-38-74-13-85.5q0-52 12-96t37-76.5 62-50.5 87-18q36 0 66.5 12t54 33 38.5 50.5 20 64.5h38q-6-46-25-82t-48-60.5-66-37.5-78-13q-63 0-107.5 22.5t-73 60.5-42 87.5-13.5 103.5 15.5 102 45.5 84 74 57 101 21q42 0 78.5-10.5t65-31.5 46.5-53.5 22-75.5h-38zM352 730h51l-134-140h-37z" glyph-name="cacute" unicode="&#x107;"/><glyph d="M443 355q-3 34-17.5 60t-37.5 43-53.5 26-65.5 9q-48 0-85-19.5t-62-52-38-74-13-85.5q0-52 12-96t37-76.5 62-50.5 87-18q36 0 66.5 12t54 33 38.5 50.5 20 64.5h38q-6-46-25-82t-48-60.5-66-37.5-78-13q-63 0-107.5 22.5t-73 60.5-42 87.5-13.5 103.5 15.5 102 45.5 84 74 57 101 21q42 0 78.5-10.5t65-31.5 46.5-53.5 22-75.5h-38zM288 730l116-140h-38l-98 115-97-115h-38l115 140h40z" glyph-name="ccircumflex" unicode="&#x109;"/><glyph d="M443 355q-3 34-17.5 60t-37.5 43-53.5 26-65.5 9q-48 0-85-19.5t-62-52-38-74-13-85.5q0-52 12-96t37-76.5 62-50.5 87-18q36 0 66.5 12t54 33 38.5 50.5 20 64.5h38q-6-46-25-82t-48-60.5-66-37.5-78-13q-63 0-107.5 22.5t-73 60.5-42 87.5-13.5 103.5 15.5 102 45.5 84 74 57 101 21q42 0 78.5-10.5t65-31.5 46.5-53.5 22-75.5h-38zM248 590l-115 140h38l97-115 98 115h38l-116-140h-40z" glyph-name="ccaron" unicode="&#x10d;"/><glyph d="M443 355q-3 34-17.5 60t-37.5 43-53.5 26-65.5 9q-48 0-85-19.5t-62-52-38-74-13-85.5q0-52 12-96t37-76.5 62-50.5 87-18q36 0 66.5 12t54 33 38.5 50.5 20 64.5h38q-6-46-25-82t-48-60.5-66-37.5-78-13q-63 0-107.5 22.5t-73 60.5-42 87.5-13.5 103.5 15.5 102 45.5 84 74 57 101 21q42 0 78.5-10.5t65-31.5 46.5-53.5 22-75.5h-38zM246 603v103h44v-103h-44z" glyph-name="cdotaccent" unicode="&#x10b;"/><glyph d="M443 355q-3 34-17.5 60t-37.5 43-53.5 26-65.5 9q-48 0-85-19.5t-62-52-38-74-13-85.5q0-52 12-96t37-76.5 62-50.5 87-18q36 0 66.5 12t54 33 38.5 50.5 20 64.5h38q-6-45-24-80t-45.5-59.5-62-38-73.5-15.5l-38-44 1-1q17 7 38 7 31 0 52.5-16.5t21.5-50.5q0-40-28-59.5t-70-19.5q-29 0-51 7t-41 18l11 24q17-9 36.5-15.5t43.5-6.5q27 0 44 13t17 37q0 19-14.5 31t-37.5 12q-14 0-26-3.5t-23-8.5l-16 13 47 64q-57 4-97.5 27.5t-67 61-38.5 85-12 99.5q0 54 15.5 102t45.5 84 74 57 101 21q42 0 78.5-10.5t65-31.5 46.5-53.5 22-75.5h-38z" glyph-name="ccedilla" unicode="&#xe7;"/><glyph d="M453 110h-2q-32-61-80-91.5t-117-30.5q-58 0-100 22t-69 59-40 85.5-13 101.5q0 57 14 106.5t42.5 85.5 71.5 57 101 21q31 0 61-8.5t55.5-24.5 44.5-40 29-54h2v315h38v-714h-38v110zM262 21q49 0 84.5 20t59 53 35 75.5 11.5 86.5q0 45-11.5 87.5t-34.5 76-59.5 53.5-85.5 20q-51 0-87-19.5t-59.5-52.5-34-76-10.5-89q0-45 11.5-87.5t35-75.5 59.5-52.5 86-19.5zM597 714h51l-87-140h-29z" glyph-name="dcaron" horiz-adv-x="556" unicode="&#x10f;"/><glyph d="M453 110h-2q-32-61-80-91.5t-117-30.5q-58 0-100 22t-69 59-40 85.5-13 101.5q0 57 14 106.5t42.5 85.5 71.5 57 101 21q31 0 61-8.5t55.5-24.5 44.5-40 29-54h2v190h-195v31h195v94h38v-94h82v-31h-82v-589h-38v110zM262 21q49 0 84.5 20t59 53 35 75.5 11.5 86.5q0 45-11.5 87.5t-34.5 76-59.5 53.5-85.5 20q-51 0-87-19.5t-59.5-52.5-34-76-10.5-89q0-45 11.5-87.5t35-75.5 59.5-52.5 86-19.5z" glyph-name="dcroat" horiz-adv-x="556" unicode="&#x111;"/><glyph d="M254 642q-25 19-51.5 36t-51.5 29l28 24q58-31 108-71l115 64 20-22-109-61q96-76 143.5-171t47.5-221q0-54-14.5-101.5t-44-83-73.5-56-103-20.5q-60 0-105 20t-74 55.5-43.5 83-14.5 102.5q0 52 15.5 98.5t46 82 74.5 56 101 20.5q45 0 86-15t77-59l2 2q-22 51-63 99.5t-92 88.5l-112-62-21 22zM269 473q-49 0-86-18.5t-62-50-38-72-13-83.5q0-44 12-85.5t37-73 62-50.5 88-19 88.5 18.5 61.5 50 35.5 73 11.5 86.5q0 43-12.5 83.5t-37 72-61.5 50-86 18.5z" glyph-name="eth" horiz-adv-x="537" unicode="&#xf0;"/><glyph d="M71 252v-6q0-45 12-86t35.5-72 59-49 82.5-18q77 0 122 40.5t62 112.5h38q-17-90-73.5-138t-149.5-48q-57 0-99.5 20.5t-71 56-42.5 84-14 104.5q0 54 14.5 103.5t43.5 87 72.5 60 102.5 22.5q54 0 95.5-20t69.5-54.5 42.5-80 14.5-97.5q0-5-.5-11.5t-.5-10.5h-415zM448 285q-2 42-14 79.5t-35.5 66-57 45.5-76.5 17q-46 0-81-17.5t-59-46-37-66.5-16-78h376zM261 590l-134 140h51l120-140h-37z" glyph-name="egrave" unicode="&#xe8;"/><glyph d="M71 252v-6q0-45 12-86t35.5-72 59-49 82.5-18q77 0 122 40.5t62 112.5h38q-17-90-73.5-138t-149.5-48q-57 0-99.5 20.5t-71 56-42.5 84-14 104.5q0 54 14.5 103.5t43.5 87 72.5 60 102.5 22.5q54 0 95.5-20t69.5-54.5 42.5-80 14.5-97.5q0-5-.5-11.5t-.5-10.5h-415zM448 285q-2 42-14 79.5t-35.5 66-57 45.5-76.5 17q-46 0-81-17.5t-59-46-37-66.5-16-78h376zM345 730h51l-134-140h-37z" glyph-name="eacute" unicode="&#xe9;"/><glyph d="M71 252v-6q0-45 12-86t35.5-72 59-49 82.5-18q77 0 122 40.5t62 112.5h38q-17-90-73.5-138t-149.5-48q-57 0-99.5 20.5t-71 56-42.5 84-14 104.5q0 54 14.5 103.5t43.5 87 72.5 60 102.5 22.5q54 0 95.5-20t69.5-54.5 42.5-80 14.5-97.5q0-5-.5-11.5t-.5-10.5h-415zM448 285q-2 42-14 79.5t-35.5 66-57 45.5-76.5 17q-46 0-81-17.5t-59-46-37-66.5-16-78h376zM281 730l116-140h-38l-98 115-97-115h-38l115 140h40z" glyph-name="ecircumflex" unicode="&#xea;"/><glyph d="M71 252v-6q0-45 12-86t35.5-72 59-49 82.5-18q77 0 122 40.5t62 112.5h38q-17-90-73.5-138t-149.5-48q-57 0-99.5 20.5t-71 56-42.5 84-14 104.5q0 54 14.5 103.5t43.5 87 72.5 60 102.5 22.5q54 0 95.5-20t69.5-54.5 42.5-80 14.5-97.5q0-5-.5-11.5t-.5-10.5h-415zM448 285q-2 42-14 79.5t-35.5 66-57 45.5-76.5 17q-46 0-81-17.5t-59-46-37-66.5-16-78h376zM241 590l-115 140h38l97-115 98 115h38l-116-140h-40z" glyph-name="ecaron" unicode="&#x11b;"/><glyph d="M71 252v-6q0-45 12-86t35.5-72 59-49 82.5-18q77 0 122 40.5t62 112.5h38q-17-90-73.5-138t-149.5-48q-57 0-99.5 20.5t-71 56-42.5 84-14 104.5q0 54 14.5 103.5t43.5 87 72.5 60 102.5 22.5q54 0 95.5-20t69.5-54.5 42.5-80 14.5-97.5q0-5-.5-11.5t-.5-10.5h-415zM448 285q-2 42-14 79.5t-35.5 66-57 45.5-76.5 17q-46 0-81-17.5t-59-46-37-66.5-16-78h376zM318 603v103h44v-103h-44zM160 603v103h44v-103h-44z" glyph-name="edieresis" unicode="&#xeb;"/><glyph d="M71 252v-6q0-45 12-86t35.5-72 59-49 82.5-18q77 0 122 40.5t62 112.5h38q-17-90-73.5-138t-149.5-48q-57 0-99.5 20.5t-71 56-42.5 84-14 104.5q0 54 14.5 103.5t43.5 87 72.5 60 102.5 22.5q54 0 95.5-20t69.5-54.5 42.5-80 14.5-97.5q0-5-.5-11.5t-.5-10.5h-415zM448 285q-2 42-14 79.5t-35.5 66-57 45.5-76.5 17q-46 0-81-17.5t-59-46-37-66.5-16-78h376zM140 638v33h242v-33h-242z" glyph-name="emacron" unicode="&#x113;"/><glyph d="M71 252v-6q0-45 12-86t35.5-72 59-49 82.5-18q77 0 122 40.5t62 112.5h38q-17-90-73.5-138t-149.5-48q-57 0-99.5 20.5t-71 56-42.5 84-14 104.5q0 54 14.5 103.5t43.5 87 72.5 60 102.5 22.5q54 0 95.5-20t69.5-54.5 42.5-80 14.5-97.5q0-5-.5-11.5t-.5-10.5h-415zM448 285q-2 42-14 79.5t-35.5 66-57 45.5-76.5 17q-46 0-81-17.5t-59-46-37-66.5-16-78h376zM397 720q-3-24-14.5-46t-29-38.5-40-26-47.5-9.5q-57 0-95 31.5t-45 88.5h33q6-26 18-43t26.5-27 30.5-13.5 31-3.5q39 0 65.5 24t33.5 63h33z" glyph-name="ebreve" unicode="&#x115;"/><glyph d="M71 252v-6q0-45 12-86t35.5-72 59-49 82.5-18q77 0 122 40.5t62 112.5h38q-17-90-73.5-138t-149.5-48q-57 0-99.5 20.5t-71 56-42.5 84-14 104.5q0 54 14.5 103.5t43.5 87 72.5 60 102.5 22.5q54 0 95.5-20t69.5-54.5 42.5-80 14.5-97.5q0-5-.5-11.5t-.5-10.5h-415zM448 285q-2 42-14 79.5t-35.5 66-57 45.5-76.5 17q-46 0-81-17.5t-59-46-37-66.5-16-78h376zM239 603v103h44v-103h-44z" glyph-name="edotaccent" unicode="&#x117;"/><glyph d="M71 252v-6q0-45 12-86t35.5-72 59-49 82.5-18q77 0 122 40.5t62 112.5h38q-16-83-65-130t-129-55q-42-38-56-63t-14-47q0-20 12.5-31t30.5-11q19 0 32 7.5t26 27.5l23-8q-25-60-86-60-37 0-59.5 16.5t-22.5 51.5q0 11 3.5 23.5t12.5 26.5 25.5 30.5 42.5 35.5q-56 0-98.5 20.5t-71 56-42.5 84-14 104.5q0 54 14.5 103.5t43.5 87 72.5 60 102.5 22.5q54 0 95.5-20t69.5-54.5 42.5-80 14.5-97.5q0-5-.5-11.5t-.5-10.5h-415zM448 285q-2 42-14 79.5t-35.5 66-57 45.5-76.5 17q-46 0-81-17.5t-59-46-37-66.5-16-78h376z" glyph-name="eogonek" unicode="&#x119;"/><glyph d="M481 514v-487q0-43-10-83.5t-34.5-71.5-67.5-49.5-109-18.5q-41 0-77 8.5t-63 27-43.5 49-18.5 75.5h38q3-34 17-58t36.5-39.5 50.5-22.5 60-7q53 0 88.5 16t56.5 41.5 29.5 58 8.5 65.5v118h-2q-27-57-73.5-87t-112.5-30q-57 0-98.5 19.5t-69 54-41 80.5-13.5 100q0 51 14.5 97t42.5 80.5 69.5 55 95.5 20.5q61 0 112.5-31t73.5-88h2v107h38zM255 493q-47 0-81.5-19t-57-50-34-70.5-11.5-80.5q0-45 11.5-85.5t35-70.5 58-47.5 79.5-17.5q47 0 82 18t58.5 49 35 70.5 11.5 83.5q0 43-11.5 83t-35 70.5-58.5 48.5-82 18zM288 730l116-140h-38l-98 115-97-115h-38l115 140h40z" glyph-name="gcircumflex" horiz-adv-x="537" unicode="&#x11d;"/><glyph d="M481 514v-487q0-43-10-83.5t-34.5-71.5-67.5-49.5-109-18.5q-41 0-77 8.5t-63 27-43.5 49-18.5 75.5h38q3-34 17-58t36.5-39.5 50.5-22.5 60-7q53 0 88.5 16t56.5 41.5 29.5 58 8.5 65.5v118h-2q-27-57-73.5-87t-112.5-30q-57 0-98.5 19.5t-69 54-41 80.5-13.5 100q0 51 14.5 97t42.5 80.5 69.5 55 95.5 20.5q61 0 112.5-31t73.5-88h2v107h38zM255 493q-47 0-81.5-19t-57-50-34-70.5-11.5-80.5q0-45 11.5-85.5t35-70.5 58-47.5 79.5-17.5q47 0 82 18t58.5 49 35 70.5 11.5 83.5q0 43-11.5 83t-35 70.5-58.5 48.5-82 18zM404 720q-3-24-14.5-46t-29-38.5-40-26-47.5-9.5q-57 0-95 31.5t-45 88.5h33q6-26 18-43t26.5-27 30.5-13.5 31-3.5q39 0 65.5 24t33.5 63h33z" glyph-name="gbreve" horiz-adv-x="537" unicode="&#x11f;"/><glyph d="M481 514v-487q0-43-10-83.5t-34.5-71.5-67.5-49.5-109-18.5q-41 0-77 8.5t-63 27-43.5 49-18.5 75.5h38q3-34 17-58t36.5-39.5 50.5-22.5 60-7q53 0 88.5 16t56.5 41.5 29.5 58 8.5 65.5v118h-2q-27-57-73.5-87t-112.5-30q-57 0-98.5 19.5t-69 54-41 80.5-13.5 100q0 51 14.5 97t42.5 80.5 69.5 55 95.5 20.5q61 0 112.5-31t73.5-88h2v107h38zM255 493q-47 0-81.5-19t-57-50-34-70.5-11.5-80.5q0-45 11.5-85.5t35-70.5 58-47.5 79.5-17.5q47 0 82 18t58.5 49 35 70.5 11.5 83.5q0 43-11.5 83t-35 70.5-58.5 48.5-82 18zM247 603v103h44v-103h-44z" glyph-name="gdotaccent" horiz-adv-x="537" unicode="&#x121;"/><glyph d="M481 514v-487q0-43-10-83.5t-34.5-71.5-67.5-49.5-109-18.5q-41 0-77 8.5t-63 27-43.5 49-18.5 75.5h38q3-34 17-58t36.5-39.5 50.5-22.5 60-7q53 0 88.5 16t56.5 41.5 29.5 58 8.5 65.5v118h-2q-27-57-73.5-87t-112.5-30q-57 0-98.5 19.5t-69 54-41 80.5-13.5 100q0 51 14.5 97t42.5 80.5 69.5 55 95.5 20.5q61 0 112.5-31t73.5-88h2v107h38zM255 493q-47 0-81.5-19t-57-50-34-70.5-11.5-80.5q0-45 11.5-85.5t35-70.5 58-47.5 79.5-17.5q47 0 82 18t58.5 49 35 70.5 11.5 83.5q0 43-11.5 83t-35 70.5-58.5 48.5-82 18zM302 747q-13-3-21-10.5t-10-22.5h25v-93h-57v80q0 61 63 66v-20z" glyph-name="gcommaaccent" horiz-adv-x="537" unicode="&#x123;"/><glyph d="M94 714v-310h2q10 29 28.5 51.5t43 38.5 53.5 24 59 8q45 0 76.5-11t51.5-29 31.5-40.5 16.5-45.5 6-44.5 1-37.5v-318h-38v325q0 19-3 48t-17.5 55.5-44 45.5-81.5 19q-44 0-78-16t-58-44.5-36.5-68-12.5-86.5v-278h-38v714h38zM270 920l116-140h-38l-98 115-97-115h-38l115 140h40z" glyph-name="hcircumflex" unicode="&#x125;"/><glyph d="M94 714v-94h195v-31h-195v-185h2q10 29 28.5 51.5t43 38.5 53.5 24 59 8q45 0 76.5-11t51.5-29 31.5-40.5 16.5-45.5 6-44.5 1-37.5v-318h-38v325q0 19-3 48t-17.5 55.5-44 45.5-81.5 19q-44 0-78-16t-58-44.5-36.5-68-12.5-86.5v-278h-38v589h-82v31h82v94h38z" glyph-name="hbar" unicode="&#x127;"/><glyph d="M65 0v514h38v-514h-38z" glyph-name="dotlessi" horiz-adv-x="168" unicode="&#x131;"/><glyph d="M65 0v514h38v-514h-38zM73 590l-134 140h51l120-140h-37z" glyph-name="igrave" horiz-adv-x="168" unicode="&#xec;"/><glyph d="M65 0v514h38v-514h-38zM179 730h51l-134-140h-37z" glyph-name="iacute" horiz-adv-x="168" unicode="&#xed;"/><glyph d="M65 0v514h38v-514h-38zM220 720q-3-24-14.5-46t-29-38.5-40-26-47.5-9.5q-57 0-95 31.5t-45 88.5h33q6-26 18-43t26.5-27 30.5-13.5 31-3.5q39 0 65.5 24t33.5 63h33z" glyph-name="ibreve" horiz-adv-x="168" unicode="&#x12d;"/><glyph d="M65 0v514h38v-514h-38zM104 730l116-140h-38l-98 115-97-115h-38l115 140h40z" glyph-name="icircumflex" horiz-adv-x="168" unicode="&#xee;"/><glyph d="M65 0v514h38v-514h-38zM-61 609q1 16 7 32.5t15.5 29 23.5 20.5 32 8q19 0 37-9t35-19.5 33.5-19.5 31.5-9q21 0 32 18.5t13 38.5h29q-2-17-7-33t-14-28.5-22.5-20.5-32.5-8q-17 0-34 9t-34.5 19.5-34.5 19.5-34 9q-20 0-31.5-17t-15.5-40h-29z" glyph-name="itilde" horiz-adv-x="168" unicode="&#x129;"/><glyph d="M65 0v514h38v-514h-38zM141 603v103h44v-103h-44zM-17 603v103h44v-103h-44z" glyph-name="idieresis" horiz-adv-x="168" unicode="&#xef;"/><glyph d="M65 0v514h38v-514h-38zM-37 638v33h242v-33h-242z" glyph-name="imacron" horiz-adv-x="168" unicode="&#x12b;"/><glyph d="M65 611v103h38v-103h-38zM103 0q-20-22-33-39t-21-31.5-11.5-26.5-3.5-24q0-20 11-31t27-11q15 0 27.5 7.5t25.5 27.5l23-8q-13-31-33.5-45.5t-46.5-14.5q-32 0-54 16.5t-22 51.5q0 12 3.5 25t13.5 29 27 34.5 43 39.5h-14v514h38v-514z" glyph-name="iogonek" horiz-adv-x="168" unicode="&#x12f;"/><glyph d="M103 514v-569q0-26-4-49.5t-15.5-41-32-28-53.5-10.5h-16-8t-8 1v33q5-1 11-1.5t14-.5q20 0 34 4.5t23 16 13 31 4 48.5v566h38z" glyph-name="dotlessj" horiz-adv-x="168" unicode="&#x237;"/><glyph d="M103 514v-569q0-26-4-49.5t-15.5-41-32-28-53.5-10.5h-16-8t-8 1v33q5-1 11-1.5t14-.5q20 0 34 4.5t23 16 13 31 4 48.5v566h38zM102 730l116-140h-38l-98 115-97-115h-38l115 140h40z" glyph-name="jcircumflex" horiz-adv-x="168" unicode="&#x135;"/><glyph d="M58 714h38v-473l317 273h55l-225-192 241-322h-52l-219 293-117-99v-194h-38v714zM225-176q13 3 21 10.5t10 22.5h-25v93h57v-80q0-61-63-66v20z" glyph-name="kcommaaccent" horiz-adv-x="463" unicode="&#x137;"/><glyph d="M56 514h38v-281l319 281h55l-227-200 243-314h-52l-221 285-117-99v-186h-38v514z" glyph-name="kgreenlandic" horiz-adv-x="463" unicode="&#x138;"/><glyph d="M103 714v-714h-38v714h38zM179 920h51l-134-140h-37z" glyph-name="lacute" horiz-adv-x="168" unicode="&#x13a;"/><glyph d="M103 714v-714h-38v714h38zM209 714h51l-87-140h-29z" glyph-name="lcaron" horiz-adv-x="168" unicode="&#x13e;"/><glyph d="M103 714v-714h-38v714h38zM49-176q13 3 21 10.5t10 22.5h-25v93h57v-80q0-61-63-66v20z" glyph-name="lcommaaccent" horiz-adv-x="168" unicode="&#x13c;"/><glyph d="M65 714h38v-286l70 54v-35l-70-54v-393h-38v363l-70-54v35l70 54v316z" glyph-name="lslash" horiz-adv-x="168" unicode="&#x142;"/><glyph d="M103 714v-714h-38v714h38zM178 329v103h44v-103h-44z" glyph-name="ldot" horiz-adv-x="248" unicode="&#x140;"/><glyph d="M56 514h38v-110h2q10 29 28.5 51.5t43 38.5 53.5 24 59 8q45 0 76.5-11t51.5-29 31.5-40.5 16.5-45.5 6-44.5 1-37.5v-318h-38v325q0 19-3 48t-17.5 55.5-44 45.5-81.5 19q-44 0-78-16t-58-44.5-36.5-68-12.5-86.5v-278h-38v514zM344 730h51l-134-140h-37z" glyph-name="nacute" unicode="&#x144;"/><glyph d="M56 514h38v-110h2q10 29 28.5 51.5t43 38.5 53.5 24 59 8q45 0 76.5-11t51.5-29 31.5-40.5 16.5-45.5 6-44.5 1-37.5v-318h-38v325q0 19-3 48t-17.5 55.5-44 45.5-81.5 19q-44 0-78-16t-58-44.5-36.5-68-12.5-86.5v-278h-38v514zM240 590l-115 140h38l97-115 98 115h38l-116-140h-40z" glyph-name="ncaron" unicode="&#x148;"/><glyph d="M56 514h38v-110h2q10 29 28.5 51.5t43 38.5 53.5 24 59 8q45 0 76.5-11t51.5-29 31.5-40.5 16.5-45.5 6-44.5 1-37.5v-318h-38v325q0 19-3 48t-17.5 55.5-44 45.5-81.5 19q-44 0-78-16t-58-44.5-36.5-68-12.5-86.5v-278h-38v514zM115 609q1 16 7 32.5t15.5 29 23.5 20.5 32 8q19 0 37-9t35-19.5 33.5-19.5 31.5-9q21 0 32 18.5t13 38.5h29q-2-17-7-33t-14-28.5-22.5-20.5-32.5-8q-17 0-34 9t-34.5 19.5-34.5 19.5-34 9q-20 0-31.5-17t-15.5-40h-29z" glyph-name="ntilde" unicode="&#xf1;"/><glyph d="M56 514h38v-110h2q10 29 28.5 51.5t43 38.5 53.5 24 59 8q45 0 76.5-11t51.5-29 31.5-40.5 16.5-45.5 6-44.5 1-37.5v-318h-38v325q0 19-3 48t-17.5 55.5-44 45.5-81.5 19q-44 0-78-16t-58-44.5-36.5-68-12.5-86.5v-278h-38v514zM225-176q13 3 21 10.5t10 22.5h-25v93h57v-80q0-61-63-66v20z" glyph-name="ncommaaccent" unicode="&#x146;"/><glyph d="M135 514h38v-110h2q10 29 28.5 51.5t43 38.5 53.5 24 59 8q45 0 76.5-11t51.5-29 31.5-40.5 16.5-45.5 6-44.5 1-37.5v-318h-38v325q0 19-3 48t-17.5 55.5-44 45.5-81.5 19q-44 0-78-16t-58-44.5-36.5-68-12.5-86.5v-278h-38v514zM80 611q0-20-3-39.5t-10.5-36.5-20-30-30.5-20v33q11 5 17.5 16.5t10.5 25 5 27.5 1 24h-21v103h51v-103z" glyph-name="napostrophe" horiz-adv-x="598" unicode="&#x149;"/><glyph d="M32 257q0 55 15.5 103.5t45.5 85.5 74 58.5 101 21.5 101-21.5 74-58.5 45.5-85.5 15.5-103.5-15.5-104-45.5-85.5-74-58-101-21.5-101 21.5-74 58-45.5 85.5-15.5 104zM70 257q0-46 13-88.5t38-75.5 62-52.5 85-19.5 85 19.5 62 52.5 38 75.5 13 88.5-13 88.5-38 75.5-62 52.5-85 19.5-85-19.5-62-52.5-38-75.5-13-88.5zM273 590l-134 140h51l120-140h-37z" glyph-name="ograve" horiz-adv-x="537" unicode="&#xf2;"/><glyph d="M32 257q0 55 15.5 103.5t45.5 85.5 74 58.5 101 21.5 101-21.5 74-58.5 45.5-85.5 15.5-103.5-15.5-104-45.5-85.5-74-58-101-21.5-101 21.5-74 58-45.5 85.5-15.5 104zM70 257q0-46 13-88.5t38-75.5 62-52.5 85-19.5 85 19.5 62 52.5 38 75.5 13 88.5-13 88.5-38 75.5-62 52.5-85 19.5-85-19.5-62-52.5-38-75.5-13-88.5zM347 730h51l-134-140h-37z" glyph-name="oacute" horiz-adv-x="537" unicode="&#xf3;"/><glyph d="M32 257q0 55 15.5 103.5t45.5 85.5 74 58.5 101 21.5 101-21.5 74-58.5 45.5-85.5 15.5-103.5-15.5-104-45.5-85.5-74-58-101-21.5-101 21.5-74 58-45.5 85.5-15.5 104zM70 257q0-46 13-88.5t38-75.5 62-52.5 85-19.5 85 19.5 62 52.5 38 75.5 13 88.5-13 88.5-38 75.5-62 52.5-85 19.5-85-19.5-62-52.5-38-75.5-13-88.5zM288 730l116-140h-38l-98 115-97-115h-38l115 140h40z" glyph-name="ocircumflex" horiz-adv-x="537" unicode="&#xf4;"/><glyph d="M32 257q0 55 15.5 103.5t45.5 85.5 74 58.5 101 21.5 101-21.5 74-58.5 45.5-85.5 15.5-103.5-15.5-104-45.5-85.5-74-58-101-21.5-101 21.5-74 58-45.5 85.5-15.5 104zM70 257q0-46 13-88.5t38-75.5 62-52.5 85-19.5 85 19.5 62 52.5 38 75.5 13 88.5-13 88.5-38 75.5-62 52.5-85 19.5-85-19.5-62-52.5-38-75.5-13-88.5zM123 609q1 16 7 32.5t15.5 29 23.5 20.5 32 8q19 0 37-9t35-19.5 33.5-19.5 31.5-9q21 0 32 18.5t13 38.5h29q-2-17-7-33t-14-28.5-22.5-20.5-32.5-8q-17 0-34 9t-34.5 19.5-34.5 19.5-34 9q-20 0-31.5-17t-15.5-40h-29z" glyph-name="otilde" horiz-adv-x="537" unicode="&#xf5;"/><glyph d="M32 257q0 55 15.5 103.5t45.5 85.5 74 58.5 101 21.5 101-21.5 74-58.5 45.5-85.5 15.5-103.5-15.5-104-45.5-85.5-74-58-101-21.5-101 21.5-74 58-45.5 85.5-15.5 104zM70 257q0-46 13-88.5t38-75.5 62-52.5 85-19.5 85 19.5 62 52.5 38 75.5 13 88.5-13 88.5-38 75.5-62 52.5-85 19.5-85-19.5-62-52.5-38-75.5-13-88.5zM325 603v103h44v-103h-44zM167 603v103h44v-103h-44z" glyph-name="odieresis" horiz-adv-x="537" unicode="&#xf6;"/><glyph d="M32 257q0 55 15.5 103.5t45.5 85.5 74 58.5 101 21.5 101-21.5 74-58.5 45.5-85.5 15.5-103.5-15.5-104-45.5-85.5-74-58-101-21.5-101 21.5-74 58-45.5 85.5-15.5 104zM70 257q0-46 13-88.5t38-75.5 62-52.5 85-19.5 85 19.5 62 52.5 38 75.5 13 88.5-13 88.5-38 75.5-62 52.5-85 19.5-85-19.5-62-52.5-38-75.5-13-88.5zM147 638v33h242v-33h-242z" glyph-name="omacron" horiz-adv-x="537" unicode="&#x14d;"/><glyph d="M32 257q0 55 15.5 103.5t45.5 85.5 74 58.5 101 21.5 101-21.5 74-58.5 45.5-85.5 15.5-103.5-15.5-104-45.5-85.5-74-58-101-21.5-101 21.5-74 58-45.5 85.5-15.5 104zM70 257q0-46 13-88.5t38-75.5 62-52.5 85-19.5 85 19.5 62 52.5 38 75.5 13 88.5-13 88.5-38 75.5-62 52.5-85 19.5-85-19.5-62-52.5-38-75.5-13-88.5zM404 720q-3-24-14.5-46t-29-38.5-40-26-47.5-9.5q-57 0-95 31.5t-45 88.5h33q6-26 18-43t26.5-27 30.5-13.5 31-3.5q39 0 65.5 24t33.5 63h33z" glyph-name="obreve" horiz-adv-x="537" unicode="&#x14f;"/><glyph d="M32 257q0 55 15.5 103.5t45.5 85.5 74 58.5 101 21.5 101-21.5 74-58.5 45.5-85.5 15.5-103.5-15.5-104-45.5-85.5-74-58-101-21.5-101 21.5-74 58-45.5 85.5-15.5 104zM70 257q0-46 13-88.5t38-75.5 62-52.5 85-19.5 85 19.5 62 52.5 38 75.5 13 88.5-13 88.5-38 75.5-62 52.5-85 19.5-85-19.5-62-52.5-38-75.5-13-88.5zM320 590l120 140h51l-134-140h-37zM162 590l120 140h51l-134-140h-37z" glyph-name="ohungarumlaut" horiz-adv-x="537" unicode="&#x151;"/><glyph d="M455 428q49-72 49-171 0-55-15.5-104t-45.5-85.5-74-58-101-21.5q-54 0-95 18.5t-70 50.5l-54-57-24 23 57 61q-50 71-50 173 0 55 15.5 103.5t45.5 85.5 74 58.5 101 21.5q54 0 95.5-19t70.5-52l55 58 24-23zM408 428q-23 29-58.5 47t-81.5 18q-48 0-85-19.5t-62-52.5-38-75.5-13-88.5q0-40 9.5-77.5t29.5-67.5zM129 84q25-29 59.5-46t79.5-17q48 0 85 19.5t62 52.5 38 75.5 13 88.5q0 39-9 75.5t-29 67.5z" glyph-name="oslash" horiz-adv-x="537" unicode="&#xf8;"/><glyph d="M455 428q49-72 49-171 0-55-15.5-104t-45.5-85.5-74-58-101-21.5q-54 0-95 18.5t-70 50.5l-54-57-24 23 57 61q-50 71-50 173 0 55 15.5 103.5t45.5 85.5 74 58.5 101 21.5q54 0 95.5-19t70.5-52l55 58 24-23zM408 428q-23 29-58.5 47t-81.5 18q-48 0-85-19.5t-62-52.5-38-75.5-13-88.5q0-40 9.5-77.5t29.5-67.5zM129 84q25-29 59.5-46t79.5-17q48 0 85 19.5t62 52.5 38 75.5 13 88.5q0 39-9 75.5t-29 67.5zM352 730h51l-134-140h-37z" glyph-name="oslashacute" horiz-adv-x="537" unicode="&#x1ff;"/><glyph d="M464 252q-3-44 6-86t31-74 57.5-51.5 86.5-19.5q72 0 113 41t57 107h38q-18-82-69.5-131.5t-138.5-49.5q-81 0-133.5 39.5t-66.5 111.5h-2q-20-75-67-113t-125-38q-61 0-102.5 22t-67.5 58.5-37.5 83.5-11.5 98q0 55 13 105t40 88 69 60.5 100 22.5q75 0 124.5-40t65.5-112h2q41 152 199 152 58 0 99.5-23t67.5-61 37-87.5 8-102.5h-393zM819 285q0 40-11 78t-32.5 66.5-54.5 46-76 17.5q-46 0-80.5-17.5t-57-46.5-33.5-66.5-10-77.5h355zM252 21q52 0 86 21.5t53.5 54.5 27 73.5 7.5 79.5q0 47-8.5 91t-29 77.5-53.5 54-82 20.5q-53 0-88-22t-56-57.5-30-78.5-9-85q0-45 10.5-86.5t32.5-73 56.5-50.5 82.5-19z" glyph-name="oe" horiz-adv-x="889" unicode="&#x153;"/><glyph d="M94 400h3q7 25 25.5 47t45 38 59 24.5 67.5 7.5v-38q-30 4-68.5-6t-73.5-44q-14-15-24.5-29t-17.5-31-11-38-5-50v-281h-38v514h38v-114zM256 730h51l-134-140h-37z" glyph-name="racute" horiz-adv-x="278" unicode="&#x155;"/><glyph d="M94 400h3q7 25 25.5 47t45 38 59 24.5 67.5 7.5v-38q-30 4-68.5-6t-73.5-44q-14-15-24.5-29t-17.5-31-11-38-5-50v-281h-38v514h38v-114zM157 590l-115 140h38l97-115 98 115h38l-116-140h-40z" glyph-name="rcaron" horiz-adv-x="278" unicode="&#x159;"/><glyph d="M94 400h3q7 25 25.5 47t45 38 59 24.5 67.5 7.5v-38q-30 4-68.5-6t-73.5-44q-14-15-24.5-29t-17.5-31-11-38-5-50v-281h-38v514h38v-114zM40-176q13 3 21 10.5t10 22.5h-25v93h57v-80q0-61-63-66v20z" glyph-name="rcommaaccent" horiz-adv-x="278" unicode="&#x157;"/><glyph d="M74 171q2-36 16-63.5t36.5-47 52.5-29.5 65-10q25 0 53.5 4.5t53 16.5 40.5 33.5 16 54.5q0 43-26 65t-65.5 34-85 19.5-85 22.5-65.5 42.5-26 80.5q0 38 17 63.5t43.5 40.5 59.5 21.5 66 6.5q40 0 75-9t60.5-29 40-51 14.5-75h-38q0 35-11.5 60t-32 40.5-48.5 23-60 7.5q-26 0-52.5-5t-47.5-17-34.5-31-13.5-46q0-31 15-50t39.5-30.5 55-18.5 61.5-14q38-7 71.5-16.5t58-26 38.5-42.5 14-66q0-42-19-69t-48-43.5-64.5-23-69.5-6.5q-44 0-81.5 11.5t-65.5 35-44 57.5-17 79h38zM327 730h51l-134-140h-37z" glyph-name="sacute" horiz-adv-x="481" unicode="&#x15b;"/><glyph d="M74 171q2-36 16-63.5t36.5-47 52.5-29.5 65-10q25 0 53.5 4.5t53 16.5 40.5 33.5 16 54.5q0 43-26 65t-65.5 34-85 19.5-85 22.5-65.5 42.5-26 80.5q0 38 17 63.5t43.5 40.5 59.5 21.5 66 6.5q40 0 75-9t60.5-29 40-51 14.5-75h-38q0 35-11.5 60t-32 40.5-48.5 23-60 7.5q-26 0-52.5-5t-47.5-17-34.5-31-13.5-46q0-31 15-50t39.5-30.5 55-18.5 61.5-14q38-7 71.5-16.5t58-26 38.5-42.5 14-66q0-42-19-69t-48-43.5-64.5-23-69.5-6.5q-44 0-81.5 11.5t-65.5 35-44 57.5-17 79h38zM263 730l116-140h-38l-98 115-97-115h-38l115 140h40z" glyph-name="scircumflex" horiz-adv-x="481" unicode="&#x15d;"/><glyph d="M74 171q2-36 16-63.5t36.5-47 52.5-29.5 65-10q25 0 53.5 4.5t53 16.5 40.5 33.5 16 54.5q0 43-26 65t-65.5 34-85 19.5-85 22.5-65.5 42.5-26 80.5q0 38 17 63.5t43.5 40.5 59.5 21.5 66 6.5q40 0 75-9t60.5-29 40-51 14.5-75h-38q0 35-11.5 60t-32 40.5-48.5 23-60 7.5q-26 0-52.5-5t-47.5-17-34.5-31-13.5-46q0-31 15-50t39.5-30.5 55-18.5 61.5-14q38-7 71.5-16.5t58-26 38.5-42.5 14-66q0-42-19-69t-48-43.5-64.5-23-69.5-6.5q-44 0-81.5 11.5t-65.5 35-44 57.5-17 79h38zM223 590l-115 140h38l97-115 98 115h38l-116-140h-40z" glyph-name="scaron" horiz-adv-x="481" unicode="&#x161;"/><glyph d="M74 171q2-36 16-63.5t36.5-47 52.5-29.5 65-10q25 0 53.5 4.5t53 16.5 40.5 33.5 16 54.5q0 43-26 65t-65.5 34-85 19.5-85 22.5-65.5 42.5-26 80.5q0 38 17 63.5t43.5 40.5 59.5 21.5 66 6.5q40 0 75-9t60.5-29 40-51 14.5-75h-38q0 35-11.5 60t-32 40.5-48.5 23-60 7.5q-26 0-52.5-5t-47.5-17-34.5-31-13.5-46q0-31 15-50t39.5-30.5 55-18.5 61.5-14q38-7 71.5-16.5t58-26 38.5-42.5 14-66q0-41-18-67.5t-46-43-62.5-23.5-67.5-8l-37-44 1-1q17 7 38 7 31 0 52.5-16.5t21.5-50.5q0-40-28-59.5t-70-19.5q-29 0-51 7t-41 18l11 24q17-9 36.5-15.5t43.5-6.5q27 0 44 13t17 37q0 19-14.5 31t-37.5 12q-14 0-26-3.5t-23-8.5l-16 13 47 64q-39 3-72 16t-57.5 36-38.5 55.5-15 74.5h38z" glyph-name="scedilla" horiz-adv-x="481" unicode="&#x15f;"/><glyph d="M74 171q2-36 16-63.5t36.5-47 52.5-29.5 65-10q25 0 53.5 4.5t53 16.5 40.5 33.5 16 54.5q0 43-26 65t-65.5 34-85 19.5-85 22.5-65.5 42.5-26 80.5q0 38 17 63.5t43.5 40.5 59.5 21.5 66 6.5q40 0 75-9t60.5-29 40-51 14.5-75h-38q0 35-11.5 60t-32 40.5-48.5 23-60 7.5q-26 0-52.5-5t-47.5-17-34.5-31-13.5-46q0-31 15-50t39.5-30.5 55-18.5 61.5-14q38-7 71.5-16.5t58-26 38.5-42.5 14-66q0-42-19-69t-48-43.5-64.5-23-69.5-6.5q-44 0-81.5 11.5t-65.5 35-44 57.5-17 79h38zM215-176q13 3 21 10.5t10 22.5h-25v93h57v-80q0-61-63-66v20z" glyph-name="scommaaccent" horiz-adv-x="481" unicode="&#x219;"/><glyph d="M207 412q36 0 69 8t58.5 26 40.5 46 15 68q0 33-12 58t-32.5 41.5-47.5 25-58 8.5q-76 0-110-42t-34-114v-537h-38v537q0 91 44 140t138 49q39 0 73.5-10t60-31 40-52 14.5-73q0-63-28-103t-91-54v-2q78-9 116-59t38-128q0-73-23-115.5t-55-64.5-66.5-28-56.5-6h-55v33h38q22 0 52.5 5t59 23.5 48.5 54.5 20 98q0 49-17 81t-46 51-69 26-86 7v33z" glyph-name="germandbls" horiz-adv-x="500" unicode="&#xdf;"/><glyph d="M273 714h51l-87-140h-29zM245 481h-112v-359q0-31 7-49t21.5-27.5 35-11.5 47.5-1v-33q-29-2-56.5.5t-48.5 15-33.5 37.5-10.5 69v359h-95v33h95v160h38v-160h112v-33z" glyph-name="tcaron" horiz-adv-x="259" unicode="&#x165;"/><glyph d="M245 481h-112v-359q0-31 7-49t21.5-27.5 35-11.5 47.5-1v-33q-20-1-38.5-1t-35.5 4l-51-59 1-1q17 7 38 7 31 0 52.5-16.5t21.5-50.5q0-40-28-59.5t-70-19.5q-29 0-51 7t-41 18l11 24q17-9 36.5-15.5t43.5-6.5q27 0 44 13t17 37q0 19-14.5 31t-37.5 12q-14 0-26-3.5t-23-8.5l-16 13 66 88q-23 12-36.5 37.5t-11.5 71.5v359h-95v33h95v160h38v-160h112v-33z" glyph-name="tcommaaccent" horiz-adv-x="259" unicode="&#x163;"/><glyph d="M245 481h-112v-359q0-28 6-45.5t17.5-27.5 28.5-13.5 39-3.5q5 0 10 .5t10 .5v-33q-7-1-13.5-1h-13.5q-24 0-46 4.5t-39 17-27 34.5-10 57v10 359h-95v33h95v160h38v-160h112v-33zM128-176q13 3 21 10.5t10 22.5h-25v93h57v-80q0-61-63-66v20z" glyph-name="uni021B" horiz-adv-x="259" unicode="&#x21b;"/><glyph d="M95 354v127h-95v33h95v160h38v-160h112v-33h-112v-127h102v-31h-102v-201q0-31 7-49t21.5-27.5 35-11.5 47.5-1v-33q-29-2-56.5.5t-48.5 15-33.5 37.5-10.5 69v201h-87v31h87z" glyph-name="tbar" horiz-adv-x="259" unicode="&#x167;"/><glyph d="M65 714h38v-318h2q6 19 20 42t37 42.5 55.5 32.5 74.5 13q59 0 102.5-22t72-59 42.5-86 14-103q0-59-14-108t-42.5-84.5-72-55.5-102.5-20q-64 0-114 28t-73 91h-2v-291h-38v898zM292 21q50 0 86.5 19t60 51 35 74.5 11.5 90.5q0 44-11 86.5t-34 76-59.5 54-88.5 20.5q-51 0-87-20t-58.5-53-32.5-75.5-10-88.5 9-88.5 30.5-75 58-52 90.5-19.5z" glyph-name="thorn" horiz-adv-x="556" unicode="&#xfe;"/><glyph d="M463 0h-38v110h-2q-10-29-28.5-51.5t-43-38.5-53.5-24-59-8q-45 0-76.5 11t-51.5 29-31.5 40.5-16.5 45.5-6 44.5-1 37.5v318h38v-325q0-20 3-48.5t17.5-55 43.5-45.5 82-19q43 0 77.5 16t58.5 44.5 36.5 68 12.5 86.5v278h38v-514zM259 590l-134 140h51l120-140h-37z" glyph-name="ugrave" unicode="&#xf9;"/><glyph d="M463 0h-38v110h-2q-10-29-28.5-51.5t-43-38.5-53.5-24-59-8q-45 0-76.5 11t-51.5 29-31.5 40.5-16.5 45.5-6 44.5-1 37.5v318h38v-325q0-20 3-48.5t17.5-55 43.5-45.5 82-19q43 0 77.5 16t58.5 44.5 36.5 68 12.5 86.5v278h38v-514zM343 730h51l-134-140h-37z" glyph-name="uacute" unicode="&#xfa;"/><glyph d="M463 0h-38v110h-2q-10-29-28.5-51.5t-43-38.5-53.5-24-59-8q-45 0-76.5 11t-51.5 29-31.5 40.5-16.5 45.5-6 44.5-1 37.5v318h38v-325q0-20 3-48.5t17.5-55 43.5-45.5 82-19q43 0 77.5 16t58.5 44.5 36.5 68 12.5 86.5v278h38v-514zM279 730l116-140h-38l-98 115-97-115h-38l115 140h40z" glyph-name="ucircumflex" unicode="&#xfb;"/><glyph d="M463 0h-38v110h-2q-10-29-28.5-51.5t-43-38.5-53.5-24-59-8q-45 0-76.5 11t-51.5 29-31.5 40.5-16.5 45.5-6 44.5-1 37.5v318h38v-325q0-20 3-48.5t17.5-55 43.5-45.5 82-19q43 0 77.5 16t58.5 44.5 36.5 68 12.5 86.5v278h38v-514zM114 609q1 16 7 32.5t15.5 29 23.5 20.5 32 8q19 0 37-9t35-19.5 33.5-19.5 31.5-9q21 0 32 18.5t13 38.5h29q-2-17-7-33t-14-28.5-22.5-20.5-32.5-8q-17 0-34 9t-34.5 19.5-34.5 19.5-34 9q-20 0-31.5-17t-15.5-40h-29z" glyph-name="utilde" unicode="&#x169;"/><glyph d="M463 0h-38v110h-2q-10-29-28.5-51.5t-43-38.5-53.5-24-59-8q-45 0-76.5 11t-51.5 29-31.5 40.5-16.5 45.5-6 44.5-1 37.5v318h38v-325q0-20 3-48.5t17.5-55 43.5-45.5 82-19q43 0 77.5 16t58.5 44.5 36.5 68 12.5 86.5v278h38v-514zM316 603v103h44v-103h-44zM158 603v103h44v-103h-44z" glyph-name="udieresis" unicode="&#xfc;"/><glyph d="M463 0h-38v110h-2q-10-29-28.5-51.5t-43-38.5-53.5-24-59-8q-45 0-76.5 11t-51.5 29-31.5 40.5-16.5 45.5-6 44.5-1 37.5v318h38v-325q0-20 3-48.5t17.5-55 43.5-45.5 82-19q43 0 77.5 16t58.5 44.5 36.5 68 12.5 86.5v278h38v-514zM138 638v33h242v-33h-242z" glyph-name="umacron" unicode="&#x16b;"/><glyph d="M463 0h-38v110h-2q-10-29-28.5-51.5t-43-38.5-53.5-24-59-8q-45 0-76.5 11t-51.5 29-31.5 40.5-16.5 45.5-6 44.5-1 37.5v318h38v-325q0-20 3-48.5t17.5-55 43.5-45.5 82-19q43 0 77.5 16t58.5 44.5 36.5 68 12.5 86.5v278h38v-514zM395 720q-3-24-14.5-46t-29-38.5-40-26-47.5-9.5q-57 0-95 31.5t-45 88.5h33q6-26 18-43t26.5-27 30.5-13.5 31-3.5q39 0 65.5 24t33.5 63h33z" glyph-name="ubreve" unicode="&#x16d;"/><glyph d="M463 0h-38v110h-2q-10-29-28.5-51.5t-43-38.5-53.5-24-59-8q-45 0-76.5 11t-51.5 29-31.5 40.5-16.5 45.5-6 44.5-1 37.5v318h38v-325q0-20 3-48.5t17.5-55 43.5-45.5 82-19q43 0 77.5 16t58.5 44.5 36.5 68 12.5 86.5v278h38v-514zM160 670q0 42 28.5 70.5t70.5 28.5 70.5-28.5 28.5-70.5-28.5-70.5-70.5-28.5-70.5 28.5-28.5 70.5zM187 670q0-30 21-51t51-21 51 21 21 51-21 51-51 21-51-21-21-51z" glyph-name="uring" unicode="&#x16f;"/><glyph d="M463 0h-38v110h-2q-10-29-28.5-51.5t-43-38.5-53.5-24-59-8q-45 0-76.5 11t-51.5 29-31.5 40.5-16.5 45.5-6 44.5-1 37.5v318h38v-325q0-20 3-48.5t17.5-55 43.5-45.5 82-19q43 0 77.5 16t58.5 44.5 36.5 68 12.5 86.5v278h38v-514zM311 590l120 140h51l-134-140h-37zM153 590l120 140h51l-134-140h-37z" glyph-name="uhungarumlaut" unicode="&#x171;"/><glyph d="M425 110h-2q-10-29-28.5-51.5t-43-38.5-53.5-24-59-8q-45 0-76.5 11t-51.5 29-31.5 40.5-16.5 45.5-6 44.5-1 37.5v318h38v-325q0-20 3-48.5t17.5-55 43.5-45.5 82-19q43 0 77.5 16t58.5 44.5 36.5 68 12.5 86.5v278h38v-514h-11q-25-22-41-39t-25-31.5-12.5-26.5-3.5-24q0-20 12.5-31t30.5-11q19 0 32 7.5t26 27.5l23-8q-25-60-86-60-37 0-59.5 16.5t-22.5 51.5q0 12 4 25.5t15 29 30.5 33.5 49.5 39v111z" glyph-name="uogonek" unicode="&#x173;"/><glyph d="M184 44h2l140 470h51l141-470h2l144 470h42l-165-514h-47l-141 466h-2l-142-466h-48l-163 514h41zM436 730h51l-134-140h-37z" glyph-name="wacute" horiz-adv-x="704" unicode="&#x1e83;"/><glyph d="M184 44h2l140 470h51l141-470h2l144 470h42l-165-514h-47l-141 466h-2l-142-466h-48l-163 514h41zM372 730l116-140h-38l-98 115-97-115h-38l115 140h40z" glyph-name="wcircumflex" horiz-adv-x="704" unicode="&#x175;"/><glyph d="M184 44h2l140 470h51l141-470h2l144 470h42l-165-514h-47l-141 466h-2l-142-466h-48l-163 514h41zM409 603v103h44v-103h-44zM251 603v103h44v-103h-44z" glyph-name="wdieresis" horiz-adv-x="704" unicode="&#x1e85;"/><glyph d="M184 44h2l140 470h51l141-470h2l144 470h42l-165-514h-47l-141 466h-2l-142-466h-48l-163 514h41zM352 590l-134 140h51l120-140h-37z" glyph-name="wgrave" horiz-adv-x="704" unicode="&#x1e81;"/><glyph d="M-6 514h45l191-469 176 469h43l-220-569q-16-38-29.5-65.5t-30.5-40.5q-20-16-47.5-19.5t-72.5-3.5v33q41 0 64 6.5t43 26.5q11 11 23 40.5t30 80.5zM313 730h51l-134-140h-37z" glyph-name="yacute" horiz-adv-x="444" unicode="&#xfd;"/><glyph d="M-6 514h45l191-469 176 469h43l-220-569q-16-38-29.5-65.5t-30.5-40.5q-20-16-47.5-19.5t-72.5-3.5v33q41 0 64 6.5t43 26.5q11 11 23 40.5t30 80.5zM249 730l116-140h-38l-98 115-97-115h-38l115 140h40z" glyph-name="ycircumflex" horiz-adv-x="444" unicode="&#x177;"/><glyph d="M-6 514h45l191-469 176 469h43l-220-569q-16-38-29.5-65.5t-30.5-40.5q-20-16-47.5-19.5t-72.5-3.5v33q41 0 64 6.5t43 26.5q11 11 23 40.5t30 80.5zM286 603v103h44v-103h-44zM128 603v103h44v-103h-44z" glyph-name="ydieresis" horiz-adv-x="444" unicode="&#xff;"/><glyph d="M-6 514h45l191-469 176 469h43l-220-569q-16-38-29.5-65.5t-30.5-40.5q-20-16-47.5-19.5t-72.5-3.5v33q41 0 64 6.5t43 26.5q11 11 23 40.5t30 80.5zM229 590l-134 140h51l120-140h-37z" glyph-name="ygrave" horiz-adv-x="444" unicode="&#x1ef3;"/><glyph d="M417 33v-33h-408v36l345 445h-318v33h365v-36l-346-445h362zM300 730h51l-134-140h-37z" glyph-name="zacute" horiz-adv-x="426" unicode="&#x17a;"/><glyph d="M417 33v-33h-408v36l345 445h-318v33h365v-36l-346-445h362zM196 590l-115 140h38l97-115 98 115h38l-116-140h-40z" glyph-name="zcaron" horiz-adv-x="426" unicode="&#x17e;"/><glyph d="M417 33v-33h-408v36l345 445h-318v33h365v-36l-346-445h362zM194 603v103h44v-103h-44z" glyph-name="zdotaccent" horiz-adv-x="426" unicode="&#x17c;"/><glyph d="M130 481v-481h-38v481h-92v33h92v106q0 27 9 46.5t24.5 31.5 36 18 43.5 6q17 0 45-5v-33q-28 5-45 5-32 0-53.5-14.5t-21.5-57.5v-103h169v106q0 27 9 46.5t24.5 31.5 36 18 43.5 6q17 0 45-5v-33q-28 5-45 5-32 0-53.5-14.5t-21.5-57.5v-103h107v-33h-107v-481h-38v481h-169zM531 714v-714h-38v714h38z" glyph-name="f_f_l" horiz-adv-x="596" unicode="&#xfb04;"/><glyph d="M104 780l-134 140h51l120-140h-37z" glyph-name="grave.cap" horiz-adv-x="167" unicode="&#xe000;"/><glyph d="M146 730h51l-134-140h-37z" glyph-name="acute" horiz-adv-x="167" unicode="&#xb4;"/><glyph d="M146 920h51l-134-140h-37z" glyph-name="acute.cap" horiz-adv-x="167" unicode="&#xe002;"/><glyph d="M103 730l116-140h-38l-98 115-97-115h-38l115 140h40z" glyph-name="circumflex" horiz-adv-x="167" unicode="&#x2c6;"/><glyph d="M103 915l116-125h-38l-98 100-97-100h-38l115 125h40z" glyph-name="circumflex.cap" horiz-adv-x="167" unicode="&#xe004;"/><glyph d="M63 590l-115 140h38l97-115 98 115h38l-116-140h-40z" glyph-name="caron" horiz-adv-x="167" unicode="&#x2c7;"/><glyph d="M63 780l-115 140h38l97-115 98 115h38l-116-140h-40z" glyph-name="caron.cap" horiz-adv-x="167" unicode="&#xe006;"/><glyph d="M96 714h51l-87-140h-29z" glyph-name="caron.alt" horiz-adv-x="167" unicode="&#xe008;"/><glyph d="M-61 609q1 16 7 32.5t15.5 29 23.5 20.5 32 8q19 0 37-9t35-19.5 33.5-19.5 31.5-9q21 0 32 18.5t13 38.5h29q-2-17-7-33t-14-28.5-22.5-20.5-32.5-8q-17 0-34 9t-34.5 19.5-34.5 19.5-34 9q-20 0-31.5-17t-15.5-40h-29z" glyph-name="tilde" horiz-adv-x="167" unicode="&#x2dc;"/><glyph d="M-61 799q1 15 7 29t15.5 25.5 23.5 18.5 32 7q19 0 37-7.5t35-16.5 33.5-17 31.5-8q21 0 32 16t13 33h29q-2-15-7-29t-14-25.5-22.5-18.5-32.5-7q-17 0-34 7.5t-34.5 16.5-34.5 16.5-34 7.5q-20 0-31.5-14t-15.5-34h-29z" glyph-name="tilde.cap" horiz-adv-x="167" unicode="&#xe009;"/><glyph d="M140 603v103h44v-103h-44zM-18 603v103h44v-103h-44z" glyph-name="dieresis" horiz-adv-x="167" unicode="&#xa8;"/><glyph d="M140 793v103h44v-103h-44zM-18 793v103h44v-103h-44z" glyph-name="dieresis.cap" horiz-adv-x="167" unicode="&#xe00b;"/><glyph d="M-37 638v33h242v-33h-242z" glyph-name="macron" horiz-adv-x="167" unicode="&#xaf;"/><glyph d="M-37 828v33h242v-33h-242z" glyph-name="macron.cap" horiz-adv-x="167" unicode="&#xe00d;"/><glyph d="M-37 638v33h242v-33h-242z" glyph-name="uni02C9" horiz-adv-x="167" unicode="&#x2c9;"/></font>
</defs>
</svg>
